{
    "asset" : {
        "copyright" : "CC0 Public Domain",
        "generator" : "Khronos glTF Blender I/O v3.2.43",
        "version" : "2.0"
    },
    "scene" : 0,
    "scenes" : [
        {
            "name" : "Scene",
            "nodes" : [
                22
            ]
        }
    ],
    "nodes" : [
        {
            "name" : "Thumb.Distal",
            "rotation" : [
                -0.02709461934864521,
                -0.09888700395822525,
                0.21812710165977478,
                0.970519483089447
            ],
            "scale" : [
                1.0000134706497192,
                0.9999297857284546,
                1.0000566244125366
            ],
            "translation" : [
                -2.7939677238464355e-09,
                0.05439222604036331,
                1.862645149230957e-09
            ]
        },
        {
            "children" : [
                0
            ],
            "name" : "Thumb.Proximal",
            "rotation" : [
                0.2961694896221161,
                0.30596911907196045,
                0.3626442849636078,
                0.8289485573768616
            ],
            "scale" : [
                1.000038504600525,
                0.9999552965164185,
                1.0000064373016357
            ],
            "translation" : [
                6.411937647499144e-11,
                0.05131125450134277,
                -2.3792381398379803e-09
            ]
        },
        {
            "children" : [
                1
            ],
            "name" : "Thumb.Metacarpal",
            "rotation" : [
                -0.5415825247764587,
                0.02311032824218273,
                0.22370734810829163,
                0.8100059032440186
            ],
            "scale" : [
                1.0000070333480835,
                0.999988317489624,
                1.000004768371582
            ],
            "translation" : [
                1.3988810110276972e-14,
                0.027139680460095406,
                3.184119634624949e-12
            ]
        },
        {
            "name" : "Index.Distal",
            "rotation" : [
                -0.25095024704933167,
                0.04767034575343132,
                0.23738788068294525,
                0.9372292757034302
            ],
            "scale" : [
                1.0000001192092896,
                0.999999463558197,
                0.9999996423721313
            ],
            "translation" : [
                -1.862645149230957e-09,
                0.027131926268339157,
                -2.7939677238464355e-09
            ]
        },
        {
            "children" : [
                3
            ],
            "name" : "Index.Middle",
            "rotation" : [
                -0.17221611738204956,
                0.07892525941133499,
                0.268729567527771,
                0.9444029331207275
            ],
            "scale" : [
                1.0000001192092896,
                0.9999999403953552,
                1.0000001192092896
            ],
            "translation" : [
                6.05359673500061e-09,
                0.041016656905412674,
                -8.149072527885437e-10
            ]
        },
        {
            "children" : [
                4
            ],
            "name" : "Index.Proximal",
            "rotation" : [
                0.2625989019870758,
                0.9444106221199036,
                0.07895617187023163,
                0.18137378990650177
            ],
            "scale" : [
                1.0000001192092896,
                0.9999995231628418,
                0.999999463558197
            ],
            "translation" : [
                -7.166818249970675e-10,
                0.08452087640762329,
                2.6193447411060333e-10
            ]
        },
        {
            "children" : [
                5
            ],
            "name" : "Index.Metacarpal",
            "rotation" : [
                -0.12346728891134262,
                -0.8892306089401245,
                0.08667129278182983,
                0.43187129497528076
            ],
            "scale" : [
                1,
                0.9999997615814209,
                1
            ],
            "translation" : [
                1.3988810110276972e-14,
                0.027139680460095406,
                3.184119634624949e-12
            ]
        },
        {
            "name" : "Middle.Distal",
            "rotation" : [
                -0.17819003760814667,
                0.019102228805422783,
                0.2516302168369293,
                0.9510865807533264
            ],
            "scale" : [
                1.0000003576278687,
                0.9999990463256836,
                1.0000008344650269
            ],
            "translation" : [
                1.1990778148174286e-08,
                0.03123662620782852,
                5.587935447692871e-09
            ]
        },
        {
            "children" : [
                7
            ],
            "name" : "Middle.Middle",
            "rotation" : [
                -0.12179312109947205,
                0.05737610533833504,
                0.20174263417720795,
                0.9701414108276367
            ],
            "scale" : [
                0.9999995827674866,
                0.9999924302101135,
                1.0000078678131104
            ],
            "translation" : [
                2.2118911147117615e-09,
                0.04730657488107681,
                3.725290298461914e-09
            ]
        },
        {
            "children" : [
                8
            ],
            "name" : "Middle.Proximal",
            "rotation" : [
                0.24865801632404327,
                0.915381669998169,
                0.22174666821956635,
                0.22599568963050842
            ],
            "scale" : [
                1.0000208616256714,
                0.9999969601631165,
                0.9999814629554749
            ],
            "translation" : [
                -1.0695657692849636e-09,
                0.08190039545297623,
                8.36735125631094e-11
            ]
        },
        {
            "children" : [
                9
            ],
            "name" : "Middle.Metacarpal",
            "rotation" : [
                -0.07878946512937546,
                -0.8895359039306641,
                -0.057264167815446854,
                0.44636186957359314
            ],
            "scale" : [
                1,
                0.9999999403953552,
                1
            ],
            "translation" : [
                1.3988810110276972e-14,
                0.027139680460095406,
                3.184119634624949e-12
            ]
        },
        {
            "name" : "Ring.Distal",
            "rotation" : [
                -0.15606696903705597,
                0.0022613813634961843,
                0.30510395765304565,
                0.9394412040710449
            ],
            "scale" : [
                1.000001311302185,
                1.000003457069397,
                0.9999951720237732
            ],
            "translation" : [
                -2.7939677238464355e-09,
                0.02860994264483452,
                -1.862645149230957e-09
            ]
        },
        {
            "children" : [
                11
            ],
            "name" : "Ring.Middle",
            "rotation" : [
                -0.11938101053237915,
                0.02810066193342209,
                0.21913856267929077,
                0.9679549932479858
            ],
            "scale" : [
                1.0000005960464478,
                1.0000004768371582,
                0.9999988079071045
            ],
            "translation" : [
                3.259629011154175e-09,
                0.04300035536289215,
                5.3551048040390015e-09
            ]
        },
        {
            "children" : [
                12
            ],
            "name" : "Ring.Proximal",
            "rotation" : [
                0.11805300414562225,
                0.9161115884780884,
                0.2953908443450928,
                0.2440231889486313
            ],
            "scale" : [
                1.0000081062316895,
                0.9999940991401672,
                0.9999976754188538
            ],
            "translation" : [
                -7.676135282963514e-10,
                0.07787549495697021,
                5.250058165984228e-10
            ]
        },
        {
            "children" : [
                13
            ],
            "name" : "Ring.Metacarpal",
            "rotation" : [
                0.012066738680005074,
                -0.8788732886314392,
                -0.16796782612800598,
                0.4463439881801605
            ],
            "scale" : [
                1,
                0.9999998807907104,
                0.9999999403953552
            ],
            "translation" : [
                1.3988810110276972e-14,
                0.027139680460095406,
                3.184119634624949e-12
            ]
        },
        {
            "name" : "Pinky.Distal",
            "rotation" : [
                -0.10214482247829437,
                -0.022171931341290474,
                0.24743738770484924,
                0.9632495045661926
            ],
            "scale" : [
                0.9999997615814209,
                1.0000001192092896,
                1
            ],
            "translation" : [
                -3.725290298461914e-09,
                0.01802435703575611,
                5.587935447692871e-09
            ]
        },
        {
            "children" : [
                15
            ],
            "name" : "Pinky.Middle",
            "rotation" : [
                -0.13509494066238403,
                0.02559378743171692,
                0.289946585893631,
                0.9471142292022705
            ],
            "scale" : [
                1.0000019073486328,
                1.0000076293945312,
                0.9999903440475464
            ],
            "translation" : [
                4.656612873077393e-10,
                0.03312356397509575,
                -1.3969838619232178e-09
            ]
        },
        {
            "children" : [
                16
            ],
            "name" : "Pinky.Proximal",
            "rotation" : [
                -0.06385497748851776,
                0.9089328050613403,
                0.3252047002315521,
                0.2529933750629425
            ],
            "scale" : [
                1.0000077486038208,
                0.9999862313270569,
                1.000005841255188
            ],
            "translation" : [
                8.71068550623022e-10,
                0.07701809704303741,
                2.2185702164279064e-09
            ]
        },
        {
            "children" : [
                17
            ],
            "name" : "Pinky.Metacarpal",
            "rotation" : [
                0.12299589067697525,
                -0.8552741408348083,
                -0.25681668519973755,
                0.43292421102523804
            ],
            "scale" : [
                1.0000001192092896,
                1,
                1
            ],
            "translation" : [
                1.3988810110276972e-14,
                0.027139680460095406,
                3.184119634624949e-12
            ]
        },
        {
            "children" : [
                2,
                6,
                10,
                14,
                18
            ],
            "name" : "Root",
            "rotation" : [
                -0.007898453623056412,
                -0.7076518535614014,
                0.7064727544784546,
                0.007924593053758144
            ],
            "scale" : [
                0.9999999403953552,
                0.9999999403953552,
                1
            ],
            "translation" : [
                3.8642525623799884e-08,
                -1.8697472114581615e-05,
                0.027175575494766235
            ]
        },
        {
            "mesh" : 0,
            "name" : "Hand_L",
            "skin" : 0
        },
        {
            "mesh" : 1,
            "name" : "Hand_low_L",
            "skin" : 0
        },
        {
            "children" : [
                20,
                21,
                19
            ],
            "name" : "Armature_Left"
        }
    ],
    "meshes" : [
        {
            "name" : "Hand_L",
            "primitives" : [
                {
                    "attributes" : {
                        "POSITION" : 0,
                        "NORMAL" : 1,
                        "TEXCOORD_0" : 2,
                        "JOINTS_0" : 3,
                        "WEIGHTS_0" : 4
                    },
                    "indices" : 5
                }
            ]
        },
        {
            "name" : "Hand_L.003",
            "primitives" : [
                {
                    "attributes" : {
                        "POSITION" : 7,
                        "NORMAL" : 8,
                        "TEXCOORD_0" : 9,
                        "JOINTS_0" : 10,
                        "WEIGHTS_0" : 11
                    },
                    "indices" : 12
                }
            ]
        }
    ],
    "skins" : [
        {
            "inverseBindMatrices" : 6,
            "joints" : [
                19,
                2,
                1,
                0,
                6,
                5,
                4,
                3,
                10,
                9,
                8,
                7,
                14,
                13,
                12,
                11,
                18,
                17,
                16,
                15
            ],
            "name" : "Armature_Left"
        }
    ],
    "accessors" : [
        {
            "bufferView" : 0,
            "componentType" : 5126,
            "count" : 1966,
            "max" : [
                0.03656641021370888,
                0.09175886958837509,
                0.02576880156993866
            ],
            "min" : [
                -0.03117927722632885,
                -0.06861073523759842,
                -0.18647876381874084
            ],
            "type" : "VEC3"
        },
        {
            "bufferView" : 1,
            "componentType" : 5126,
            "count" : 1966,
            "type" : "VEC3"
        },
        {
            "bufferView" : 2,
            "componentType" : 5126,
            "count" : 1966,
            "type" : "VEC2"
        },
        {
            "bufferView" : 3,
            "componentType" : 5121,
            "count" : 1966,
            "type" : "VEC4"
        },
        {
            "bufferView" : 4,
            "componentType" : 5126,
            "count" : 1966,
            "type" : "VEC4"
        },
        {
            "bufferView" : 5,
            "componentType" : 5123,
            "count" : 10224,
            "type" : "SCALAR"
        },
        {
            "bufferView" : 6,
            "componentType" : 5126,
            "count" : 20,
            "type" : "MAT4"
        },
        {
            "bufferView" : 7,
            "componentType" : 5126,
            "count" : 567,
            "max" : [
                0.036940161138772964,
                0.0916847512125969,
                0.02588377706706524
            ],
            "min" : [
                -0.03117927722632885,
                -0.06868616491556168,
                -0.1861686259508133
            ],
            "type" : "VEC3"
        },
        {
            "bufferView" : 8,
            "componentType" : 5126,
            "count" : 567,
            "type" : "VEC3"
        },
        {
            "bufferView" : 9,
            "componentType" : 5126,
            "count" : 567,
            "type" : "VEC2"
        },
        {
            "bufferView" : 10,
            "componentType" : 5121,
            "count" : 567,
            "type" : "VEC4"
        },
        {
            "bufferView" : 11,
            "componentType" : 5126,
            "count" : 567,
            "type" : "VEC4"
        },
        {
            "bufferView" : 12,
            "componentType" : 5123,
            "count" : 2697,
            "type" : "SCALAR"
        }
    ],
    "bufferViews" : [
        {
            "buffer" : 0,
            "byteLength" : 23592,
            "byteOffset" : 0
        },
        {
            "buffer" : 0,
            "byteLength" : 23592,
            "byteOffset" : 23592
        },
        {
            "buffer" : 0,
            "byteLength" : 15728,
            "byteOffset" : 47184
        },
        {
            "buffer" : 0,
            "byteLength" : 7864,
            "byteOffset" : 62912
        },
        {
            "buffer" : 0,
            "byteLength" : 31456,
            "byteOffset" : 70776
        },
        {
            "buffer" : 0,
            "byteLength" : 20448,
            "byteOffset" : 102232
        },
        {
            "buffer" : 0,
            "byteLength" : 1280,
            "byteOffset" : 122680
        },
        {
            "buffer" : 0,
            "byteLength" : 6804,
            "byteOffset" : 123960
        },
        {
            "buffer" : 0,
            "byteLength" : 6804,
            "byteOffset" : 130764
        },
        {
            "buffer" : 0,
            "byteLength" : 4536,
            "byteOffset" : 137568
        },
        {
            "buffer" : 0,
            "byteLength" : 2268,
            "byteOffset" : 142104
        },
        {
            "buffer" : 0,
            "byteLength" : 9072,
            "byteOffset" : 144372
        },
        {
            "buffer" : 0,
            "byteLength" : 5394,
            "byteOffset" : 153444
        }
    ],
    "buffers" : [
        {
            "byteLength" : 158840,
            "uri" : "data:application/octet-stream;base64,"
        }
    ]
}
