{
    "asset" : {
        "copyright" : "CC0 Public Domain",
        "generator" : "Khronos glTF Blender I/O v3.2.43",
        "version" : "2.0"
    },
    "scene" : 0,
    "scenes" : [
        {
            "name" : "Scene",
            "nodes" : [
                22
            ]
        }
    ],
    "nodes" : [
        {
            "name" : "Thumb.Distal",
            "rotation" : [
                -0.02709462121129036,
                -0.09888700395822525,
                0.21812710165977478,
                0.970519483089447
            ],
            "scale" : [
                1.0000133514404297,
                0.9999297261238098,
                1.0000566244125366
            ],
            "translation" : [
                1.862645149230957e-09,
                0.054392218589782715,
                0
            ]
        },
        {
            "children" : [
                0
            ],
            "name" : "Thumb.Proximal",
            "rotation" : [
                0.2961694896221161,
                0.30596908926963806,
                0.3626442849636078,
                0.8289485573768616
            ],
            "scale" : [
                1.000038504600525,
                0.9999551773071289,
                1.0000064373016357
            ],
            "translation" : [
                6.411937647499144e-11,
                0.05131125450134277,
                -1.913576852530241e-09
            ]
        },
        {
            "children" : [
                1
            ],
            "name" : "Thumb.Metacarpal",
            "rotation" : [
                -0.541582465171814,
                0.02311033569276333,
                0.22370731830596924,
                0.810005784034729
            ],
            "scale" : [
                1.0000070333480835,
                0.999988317489624,
                1.000004768371582
            ],
            "translation" : [
                2.1316282072803006e-14,
                0.027139680460095406,
                3.185007813044649e-12
            ]
        },
        {
            "name" : "Index.Distal",
            "rotation" : [
                -0.25095024704933167,
                0.04767037183046341,
                0.23738788068294525,
                0.9372292757034302
            ],
            "scale" : [
                1.0000001192092896,
                0.999999463558197,
                0.9999997019767761
            ],
            "translation" : [
                2.7939677238464355e-09,
                0.027131935581564903,
                5.587935447692871e-09
            ]
        },
        {
            "children" : [
                3
            ],
            "name" : "Index.Middle",
            "rotation" : [
                -0.17221611738204956,
                0.0789252519607544,
                0.268729567527771,
                0.9444029331207275
            ],
            "scale" : [
                1.0000001192092896,
                1,
                1.0000001192092896
            ],
            "translation" : [
                4.423782229423523e-09,
                0.041016656905412674,
                -8.149072527885437e-10
            ]
        },
        {
            "children" : [
                4
            ],
            "name" : "Index.Proximal",
            "rotation" : [
                0.2625989019870758,
                0.9444106221199036,
                0.07895617932081223,
                0.18137380480766296
            ],
            "scale" : [
                1.0000001192092896,
                0.999999463558197,
                0.999999463558197
            ],
            "translation" : [
                1.6116246115416288e-09,
                0.08452088385820389,
                7.275957614183426e-10
            ]
        },
        {
            "children" : [
                5
            ],
            "name" : "Index.Metacarpal",
            "rotation" : [
                -0.12346729636192322,
                -0.8892306089401245,
                0.08667129278182983,
                0.43187129497528076
            ],
            "scale" : [
                1,
                0.9999997019767761,
                1
            ],
            "translation" : [
                2.1316282072803006e-14,
                0.027139680460095406,
                3.185007813044649e-12
            ]
        },
        {
            "name" : "Middle.Distal",
            "rotation" : [
                -0.17819002270698547,
                0.019102228805422783,
                0.2516302168369293,
                0.9510865807533264
            ],
            "scale" : [
                1.000000238418579,
                0.9999990463256836,
                1.0000007152557373
            ],
            "translation" : [
                0,
                0.031236620619893074,
                -4.889443516731262e-09
            ]
        },
        {
            "children" : [
                7
            ],
            "name" : "Middle.Middle",
            "rotation" : [
                -0.12179313600063324,
                0.05737611651420593,
                0.20174266397953033,
                0.9701414108276367
            ],
            "scale" : [
                0.999999463558197,
                0.9999923706054688,
                1.0000078678131104
            ],
            "translation" : [
                0,
                0.047306571155786514,
                -1.1641532182693481e-09
            ]
        },
        {
            "children" : [
                8
            ],
            "name" : "Middle.Proximal",
            "rotation" : [
                0.2486579865217209,
                0.915381669998169,
                0.22174665331840515,
                0.22599568963050842
            ],
            "scale" : [
                1.000020980834961,
                0.9999970197677612,
                0.9999814629554749
            ],
            "translation" : [
                -2.1827872842550278e-11,
                0.08190039545297623,
                2.0190782379359007e-10
            ]
        },
        {
            "children" : [
                9
            ],
            "name" : "Middle.Metacarpal",
            "rotation" : [
                -0.07878945767879486,
                -0.8895359039306641,
                -0.057264167815446854,
                0.44636186957359314
            ],
            "scale" : [
                1,
                0.9999999403953552,
                1
            ],
            "translation" : [
                2.1316282072803006e-14,
                0.027139680460095406,
                3.185007813044649e-12
            ]
        },
        {
            "name" : "Ring.Distal",
            "rotation" : [
                -0.15606695413589478,
                0.002261389046907425,
                0.30510392785072327,
                0.9394411444664001
            ],
            "scale" : [
                1.0000014305114746,
                1.000003457069397,
                0.9999951720237732
            ],
            "translation" : [
                4.6566128730773926e-09,
                0.02860994264483452,
                -3.259629011154175e-09
            ]
        },
        {
            "children" : [
                11
            ],
            "name" : "Ring.Middle",
            "rotation" : [
                -0.11938101053237915,
                0.028100669384002686,
                0.21913856267929077,
                0.9679549932479858
            ],
            "scale" : [
                1.0000004768371582,
                1.0000004768371582,
                0.9999988079071045
            ],
            "translation" : [
                2.3283064365386963e-09,
                0.04300034046173096,
                3.725290298461914e-09
            ]
        },
        {
            "children" : [
                12
            ],
            "name" : "Ring.Proximal",
            "rotation" : [
                0.11805299669504166,
                0.9161115884780884,
                0.2953908443450928,
                0.24402323365211487
            ],
            "scale" : [
                1.0000081062316895,
                0.999994158744812,
                0.9999977946281433
            ],
            "translation" : [
                -1.697117113508284e-09,
                0.07787549495697021,
                5.254605639493093e-10
            ]
        },
        {
            "children" : [
                13
            ],
            "name" : "Ring.Metacarpal",
            "rotation" : [
                0.012066738680005074,
                -0.8788732886314392,
                -0.16796782612800598,
                0.4463439881801605
            ],
            "scale" : [
                1,
                0.9999998807907104,
                0.9999999403953552
            ],
            "translation" : [
                2.1316282072803006e-14,
                0.027139680460095406,
                3.185007813044649e-12
            ]
        },
        {
            "name" : "Pinky.Distal",
            "rotation" : [
                -0.10214483737945557,
                -0.022171935066580772,
                0.24743740260601044,
                0.9632495045661926
            ],
            "scale" : [
                0.9999997615814209,
                1,
                0.9999999403953552
            ],
            "translation" : [
                1.862645149230957e-09,
                0.018024364486336708,
                -1.3969838619232178e-09
            ]
        },
        {
            "children" : [
                15
            ],
            "name" : "Pinky.Middle",
            "rotation" : [
                -0.13509494066238403,
                0.025593766942620277,
                0.289946585893631,
                0.9471142292022705
            ],
            "scale" : [
                1.0000019073486328,
                1.0000076293945312,
                0.9999902844429016
            ],
            "translation" : [
                -1.6298145055770874e-09,
                0.03312355652451515,
                -9.313225746154785e-10
            ]
        },
        {
            "children" : [
                16
            ],
            "name" : "Pinky.Proximal",
            "rotation" : [
                -0.06385497748851776,
                0.9089328050613403,
                0.3252047002315521,
                0.2529934048652649
            ],
            "scale" : [
                1.0000076293945312,
                0.9999862313270569,
                1.0000057220458984
            ],
            "translation" : [
                -4.0972736314870417e-10,
                0.07701808959245682,
                -2.554173761382117e-09
            ]
        },
        {
            "children" : [
                17
            ],
            "name" : "Pinky.Metacarpal",
            "rotation" : [
                0.12299589067697525,
                -0.8552741408348083,
                -0.25681668519973755,
                0.43292421102523804
            ],
            "scale" : [
                1.0000001192092896,
                1,
                1.0000001192092896
            ],
            "translation" : [
                2.1316282072803006e-14,
                0.027139680460095406,
                3.185007813044649e-12
            ]
        },
        {
            "children" : [
                2,
                6,
                10,
                14,
                18
            ],
            "name" : "Root",
            "rotation" : [
                -0.007898453623056412,
                -0.7076518535614014,
                0.7064727544784546,
                0.007924593053758144
            ],
            "scale" : [
                0.9999999403953552,
                0.9999999403953552,
                1
            ],
            "translation" : [
                3.8642525623799884e-08,
                -1.8697472114581615e-05,
                0.027175575494766235
            ]
        },
        {
            "mesh" : 0,
            "name" : "Hand_low_R",
            "skin" : 0
        },
        {
            "mesh" : 1,
            "name" : "Hand_R",
            "skin" : 0
        },
        {
            "children" : [
                20,
                21,
                19
            ],
            "name" : "Armature_Left",
            "rotation" : [
                1,
                0,
                0,
                8.146033536604591e-08
            ],
            "scale" : [
                -1,
                -1,
                -1
            ]
        }
    ],
    "meshes" : [
        {
            "name" : "Hand_R.003",
            "primitives" : [
                {
                    "attributes" : {
                        "POSITION" : 0,
                        "NORMAL" : 1,
                        "TEXCOORD_0" : 2,
                        "JOINTS_0" : 3,
                        "WEIGHTS_0" : 4
                    },
                    "indices" : 5
                }
            ]
        },
        {
            "name" : "Hand_R",
            "primitives" : [
                {
                    "attributes" : {
                        "POSITION" : 7,
                        "NORMAL" : 8,
                        "TEXCOORD_0" : 9,
                        "JOINTS_0" : 10,
                        "WEIGHTS_0" : 11
                    },
                    "indices" : 12
                }
            ]
        }
    ],
    "skins" : [
        {
            "inverseBindMatrices" : 6,
            "joints" : [
                19,
                2,
                1,
                0,
                6,
                5,
                4,
                3,
                10,
                9,
                8,
                7,
                14,
                13,
                12,
                11,
                18,
                17,
                16,
                15
            ],
            "name" : "Armature_Left"
        }
    ],
    "accessors" : [
        {
            "bufferView" : 0,
            "componentType" : 5126,
            "count" : 567,
            "max" : [
                0.031175298616290092,
                0.09163902699947357,
                0.025805607438087463
            ],
            "min" : [
                -0.03654974326491356,
                -0.06903230398893356,
                -0.18616537749767303
            ],
            "type" : "VEC3"
        },
        {
            "bufferView" : 1,
            "componentType" : 5126,
            "count" : 567,
            "type" : "VEC3"
        },
        {
            "bufferView" : 2,
            "componentType" : 5126,
            "count" : 567,
            "type" : "VEC2"
        },
        {
            "bufferView" : 3,
            "componentType" : 5121,
            "count" : 567,
            "type" : "VEC4"
        },
        {
            "bufferView" : 4,
            "componentType" : 5126,
            "count" : 567,
            "type" : "VEC4"
        },
        {
            "bufferView" : 5,
            "componentType" : 5123,
            "count" : 2697,
            "type" : "SCALAR"
        },
        {
            "bufferView" : 6,
            "componentType" : 5126,
            "count" : 20,
            "type" : "MAT4"
        },
        {
            "bufferView" : 7,
            "componentType" : 5126,
            "count" : 1966,
            "max" : [
                0.030590182170271873,
                0.0917588621377945,
                0.02580641210079193
            ],
            "min" : [
                -0.037155501544475555,
                -0.0686107948422432,
                -0.1864410638809204
            ],
            "type" : "VEC3"
        },
        {
            "bufferView" : 8,
            "componentType" : 5126,
            "count" : 1966,
            "type" : "VEC3"
        },
        {
            "bufferView" : 9,
            "componentType" : 5126,
            "count" : 1966,
            "type" : "VEC2"
        },
        {
            "bufferView" : 10,
            "componentType" : 5121,
            "count" : 1966,
            "type" : "VEC4"
        },
        {
            "bufferView" : 11,
            "componentType" : 5126,
            "count" : 1966,
            "type" : "VEC4"
        },
        {
            "bufferView" : 12,
            "componentType" : 5123,
            "count" : 10224,
            "type" : "SCALAR"
        }
    ],
    "bufferViews" : [
        {
            "buffer" : 0,
            "byteLength" : 6804,
            "byteOffset" : 0
        },
        {
            "buffer" : 0,
            "byteLength" : 6804,
            "byteOffset" : 6804
        },
        {
            "buffer" : 0,
            "byteLength" : 4536,
            "byteOffset" : 13608
        },
        {
            "buffer" : 0,
            "byteLength" : 2268,
            "byteOffset" : 18144
        },
        {
            "buffer" : 0,
            "byteLength" : 9072,
            "byteOffset" : 20412
        },
        {
            "buffer" : 0,
            "byteLength" : 5394,
            "byteOffset" : 29484
        },
        {
            "buffer" : 0,
            "byteLength" : 1280,
            "byteOffset" : 34880
        },
        {
            "buffer" : 0,
            "byteLength" : 23592,
            "byteOffset" : 36160
        },
        {
            "buffer" : 0,
            "byteLength" : 23592,
            "byteOffset" : 59752
        },
        {
            "buffer" : 0,
            "byteLength" : 15728,
            "byteOffset" : 83344
        },
        {
            "buffer" : 0,
            "byteLength" : 7864,
            "byteOffset" : 99072
        },
        {
            "buffer" : 0,
            "byteLength" : 31456,
            "byteOffset" : 106936
        },
        {
            "buffer" : 0,
            "byteLength" : 20448,
            "byteOffset" : 138392
        }
    ],
    "buffers" : [
        {
            "byteLength" : 158840,
            "uri" : "data:application/octet-stream;base64,"
        }
    ]
}
