<?xml version="1.0" encoding="UTF-8" standalone="no"?>
<svg
   height="16"
   viewBox="0 0 16 16"
   width="16"
   version="1.1"
   id="svg40"
   sodipodi:docname="backpack.svg"
   inkscape:version="1.2.1 (9c6d41e410, 2022-07-14)"
   xml:space="preserve"
   xmlns:inkscape="http://www.inkscape.org/namespaces/inkscape"
   xmlns:sodipodi="http://sodipodi.sourceforge.net/DTD/sodipodi-0.dtd"
   xmlns="http://www.w3.org/2000/svg"
   xmlns:svg="http://www.w3.org/2000/svg"><defs
     id="defs44" /><sodipodi:namedview
     id="namedview42"
     pagecolor="#ffffff"
     bordercolor="#000000"
     borderopacity="0.25"
     inkscape:showpageshadow="2"
     inkscape:pageopacity="0.0"
     inkscape:pagecheckerboard="0"
     inkscape:deskcolor="#d1d1d1"
     showgrid="false"
     inkscape:zoom="5.9551887"
     inkscape:cx="52.475248"
     inkscape:cy="17.715644"
     inkscape:window-width="1920"
     inkscape:window-height="1051"
     inkscape:window-x="-9"
     inkscape:window-y="-9"
     inkscape:window-maximized="1"
     inkscape:current-layer="svg40" /><g
     id="g217"
     transform="matrix(0.34546033,0,0,0.34546033,4.8089629,23.789479)"><path
       style="fill:#fee6e6;stroke-width:0.0542325"
       d="m 11.162747,-46.69032 c 0.0011,-0.08948 0.01326,-0.119525 0.02701,-0.06676 0.01375,0.05277 0.01285,0.125981 -0.002,0.162698 -0.01486,0.03672 -0.02611,-0.0065 -0.025,-0.09594 z m -0.002,-1.87102 c 0,-0.07457 0.01231,-0.105075 0.02735,-0.06779 0.01505,0.03728 0.01505,0.0983 0,0.135581 -0.01504,0.03729 -0.02735,0.0068 -0.02735,-0.06779 z"
       id="path229" /><path
       style="fill:#fdcece;stroke-width:0.0542325"
       d="m 11.156456,-46.477909 c 0.0026,-0.06318 0.01545,-0.07603 0.03276,-0.03277 0.01567,0.03915 0.01374,0.08592 -0.0043,0.103946 -0.01802,0.01802 -0.03084,-0.01401 -0.02848,-0.07118 z m 0.0043,-2.300361 c 0,-0.07457 0.01231,-0.105075 0.02735,-0.06779 0.01505,0.03729 0.01505,0.0983 0,0.135581 -0.01504,0.03728 -0.02735,0.0068 -0.02735,-0.06779 z"
       id="path227" /><path
       style="fill:#fdbdbd;stroke-width:0.0542325"
       d="m -3.8051423,-26.357853 0.022709,-0.194517 -0.6080918,0.03799 -0.6080919,0.038 -0.3047374,-0.182272 c -0.4710759,-0.281762 -0.6651856,-0.61648 -0.8271765,-1.426359 -0.1135382,-0.567639 -0.13045,-0.799987 -0.1276015,-1.753093 0.00288,-0.962252 0.023809,-1.221602 0.1685233,-2.08795 0.1606838,-0.961949 0.1750755,-1.010155 0.5219973,-1.748477 0.3498757,-0.744607 0.3646917,-0.765793 0.7680474,-1.098207 0.2993332,-0.246687 0.4549553,-0.338953 0.5717023,-0.338953 0.1886133,0 2.3274061,0.274643 2.3580345,0.302795 0.011497,0.01057 -0.020759,0.0828 -0.07168,0.160517 -0.050922,0.07772 -0.1007585,0.182197 -0.1107489,0.232181 -0.00999,0.04998 -0.082807,0.344686 -0.1618155,0.654897 -0.2202817,0.864892 -0.3757426,3.097365 -0.3327132,4.777878 0.044789,1.749213 0.077444,2.104847 0.1967534,2.142714 0.090382,0.02869 0.4065487,0.449924 0.3672182,0.489255 -0.020811,0.02081 -1.5662345,0.188119 -1.7376507,0.188119 -0.091288,0 -0.1039821,-0.02916 -0.084678,-0.194518 z m 24.8576773,0.10485 c -0.386147,-0.04191 -0.711337,-0.08545 -0.722643,-0.09675 -0.04056,-0.04056 0.272859,-0.461544 0.365519,-0.490953 0.119309,-0.03787 0.151965,-0.393501 0.196753,-2.142714 0.04303,-1.680513 -0.112431,-3.912986 -0.332712,-4.777878 -0.07901,-0.310211 -0.151826,-0.604914 -0.161816,-0.654897 -0.01,-0.04998 -0.05983,-0.154465 -0.110749,-0.232181 -0.05092,-0.07772 -0.08318,-0.149948 -0.07168,-0.160517 0.03063,-0.02815 2.169421,-0.302795 2.358035,-0.302795 0.116746,0 0.272369,0.09227 0.571702,0.338953 0.403355,0.332414 0.418171,0.3536 0.768047,1.098207 0.346922,0.738322 0.361313,0.786528 0.521997,1.748477 0.144715,0.866348 0.165648,1.125698 0.168524,2.08795 0.0028,0.953106 -0.01406,1.185454 -0.127602,1.753093 -0.161991,0.809879 -0.3561,1.144597 -0.827176,1.426359 l -0.304738,0.182272 -0.608092,-0.038 -0.608092,-0.03799 0.02271,0.194517 c 0.0227,0.194444 0.02263,0.194515 -0.186596,0.187781 -0.115118,-0.0037 -0.525243,-0.04102 -0.91139,-0.08293 z M 0.1569261,-26.609705 c -0.0304217,-0.03786 -0.12066939,-0.199017 -0.20055055,-0.358123 -0.09037948,-0.180018 -0.1718426,-0.279076 -0.21567381,-0.262256 -0.0766907,0.02943 -0.10900562,-0.332689 -0.1709841,-1.916036 -0.0396933,-1.014044 0.0956975,-3.564066 0.22459451,-4.230132 0.12786604,-0.660737 0.32790463,-1.138883 0.47646306,-1.138876 0.0639406,4e-6 0.75470649,0.08432 1.53503569,0.187375 1.2446311,0.164368 4.7625432,0.591328 5.4416263,0.660434 0.1342253,0.01366 0.6223175,0.07034 1.0846492,0.125964 0.8168905,0.09828 0.8635505,0.09833 1.65409,0.002 0.4474176,-0.05453 0.9355096,-0.11107 1.0846496,-0.125644 0.612522,-0.05985 4.146978,-0.488181 5.468742,-0.662737 0.780329,-0.103052 1.471095,-0.18737 1.535036,-0.187374 0.148558,-8e-6 0.348597,0.478138 0.476463,1.138876 0.128897,0.666066 0.264288,3.216087 0.224594,4.230131 -0.06201,1.584249 -0.09427,1.945474 -0.171103,1.915991 -0.04446,-0.01706 -0.131437,0.09353 -0.235145,0.298979 -0.09053,0.17933 -0.183441,0.337206 -0.20648,0.350836 -0.02304,0.01363 -0.822835,-0.05662 -1.777326,-0.156112 -0.954492,-0.09949 -1.869664,-0.194139 -2.033718,-0.210329 -0.58648,-0.05788 -1.928682,-0.196955 -2.115066,-0.219159 -0.104397,-0.01244 -0.348443,-0.0372 -0.542324,-0.05502 -0.193881,-0.01783 -0.694176,-0.07253 -1.111766,-0.121573 -0.41759,-0.04904 -1.0521093,-0.08916 -1.4100435,-0.08916 -0.3579342,0 -0.992454,0.04012 -1.4100439,0.08916 -0.41759,0.04904 -0.9178844,0.103747 -1.1117654,0.121573 -0.1938811,0.01783 -0.4379271,0.04259 -0.5423246,0.05502 -0.1043975,0.01244 -0.5558827,0.05996 -1.0033005,0.105605 -0.4474178,0.04565 -0.9233076,0.09432 -1.057533,0.108153 -0.1342253,0.01384 -0.9761842,0.09929 -1.8710198,0.189885 -0.8948356,0.0906 -1.70290896,0.177479 -1.79571859,0.193066 -0.1025666,0.01723 -0.19043728,0.0013 -0.22405761,-0.0405 z M 11.156456,-46.315212 c 0.0026,-0.06318 0.01545,-0.07603 0.03276,-0.03277 0.01567,0.03915 0.01374,0.08592 -0.0043,0.103946 -0.01802,0.01802 -0.03084,-0.01401 -0.02848,-0.07118 z m 0,-2.65739 c 0.0026,-0.06318 0.01545,-0.07603 0.03276,-0.03277 0.01567,0.03915 0.01374,0.08592 -0.0043,0.103946 -0.01802,0.01802 -0.03084,-0.01401 -0.02848,-0.07118 z"
       id="path225" /><path
       style="fill:#fda7a7;stroke-width:0.0542325"
       d="m 11.160737,-46.120879 c 0,-0.07457 0.01231,-0.105076 0.02735,-0.06779 0.01505,0.03729 0.01505,0.0983 0,0.135581 -0.01504,0.03728 -0.02735,0.0068 -0.02735,-0.06779 z m -0.0043,-3.014421 c 0.0026,-0.06318 0.01545,-0.07603 0.03276,-0.03276 0.01567,0.03915 0.01374,0.08592 -0.0043,0.103945 -0.01802,0.01802 -0.03084,-0.01401 -0.02848,-0.07118 z"
       id="path223" /><path
       style="fill:#fb8d8d;stroke-width:0.0542325"
       d="m 11.160737,-45.903949 c 0,-0.07457 0.01231,-0.105076 0.02735,-0.06779 0.01505,0.03728 0.01505,0.0983 0,0.135581 -0.01504,0.03729 -0.02735,0.0068 -0.02735,-0.06779 z m 0,-3.416645 c 0,-0.07457 0.01231,-0.105076 0.02735,-0.06779 0.01505,0.03728 0.01505,0.0983 0,0.135581 -0.01504,0.03728 -0.02735,0.0068 -0.02735,-0.06779 z"
       id="path221" /><path
       style="fill:#fc7f7f;stroke-width:0.0542325"
       d="m -1.7701938,-26.050412 c -0.079772,-0.0948 -0.1844686,-0.25546 -0.2326584,-0.357012 -0.092456,-0.194836 -0.2888931,-0.43082 -0.3884916,-0.466702 -0.073019,-0.02631 -0.1775718,-1.637267 -0.17661,-2.721237 0.00117,-1.316323 0.1878903,-3.51421 0.3539378,-4.166161 0.078977,-0.310088 0.1517688,-0.604691 0.1617591,-0.654674 0.00999,-0.04998 0.059827,-0.154465 0.1107489,-0.232181 0.050922,-0.07772 0.083178,-0.149948 0.07168,-0.160517 -0.017898,-0.01645 -2.1310743,-0.302795 -2.2345866,-0.302795 -0.020331,0 -0.036774,-3.02007 -0.036541,-6.711266 l 4.23e-4,-6.711267 0.2713499,-3.742039 c 0.1995446,-2.751811 0.3069004,-3.942956 0.4056941,-4.501294 0.1526987,-0.862981 0.155595,-0.894836 0.081364,-0.894836 -0.029828,0 -0.054232,0.03661 -0.054232,0.08135 0,0.114653 -0.046981,0.105658 -0.5961827,-0.114156 l -0.4884665,-0.195506 -0.00241,-0.306145 c -0.00133,-0.16838 -0.010987,-0.425053 -0.021467,-0.570386 -0.01826,-0.253228 0.00935,-0.31313 0.662399,-1.43716 0.3747995,-0.645105 0.7938937,-1.36704 0.9313204,-1.604299 l 0.2498667,-0.431379 1.97493937,-0.93799 c 1.0862165,-0.515894 2.00759943,-0.93799 2.04751773,-0.93799 0.039918,0 0.086645,-0.03666 0.1038373,-0.08146 0.026636,-0.06941 0.2209544,-0.08096 1.3141338,-0.07812 0.7055811,0.0018 1.3191671,-0.01112 1.363525,-0.0288 0.044357,-0.01768 0.2058962,-0.222045 0.3589749,-0.454142 0.2706292,-0.410326 0.3021225,-0.437106 1.1388816,-0.968439 l 0.8605564,-0.546444 0.8448007,-0.114412 c 0.6088813,-0.08246 1.1302109,-0.114412 1.8668222,-0.114412 0.7366113,0 1.2579407,0.03195 1.8668227,0.114412 l 0.8448,0.114412 0.860557,0.546444 c 0.836759,0.531333 0.868252,0.558113 1.138881,0.968439 0.153079,0.232097 0.314618,0.436461 0.358975,0.454142 0.04436,0.01768 0.657944,0.03064 1.363525,0.0288 1.09318,-0.0028 1.287498,0.0087 1.314134,0.07812 0.01719,0.0448 0.06392,0.08146 0.103837,0.08146 0.03992,0 0.961302,0.422096 2.047518,0.93799 l 1.97494,0.93799 0.249866,0.431379 c 0.137427,0.237259 0.556522,0.959194 0.931321,1.604299 0.65305,1.12403 0.680659,1.183932 0.662399,1.43716 -0.01048,0.145333 -0.02014,0.402006 -0.02147,0.570386 l -0.0024,0.306145 -0.488466,0.195506 c -0.549202,0.219814 -0.596183,0.228809 -0.596183,0.114156 0,-0.04474 -0.0244,-0.08135 -0.05423,-0.08135 -0.07423,0 -0.07134,0.03186 0.08136,0.894836 0.09879,0.558338 0.206149,1.749483 0.405694,4.501294 l 0.271349,3.742039 4.34e-4,6.711267 c 2.17e-4,3.691196 -0.01621,6.711266 -0.03654,6.711266 -0.103513,0 -2.216689,0.286344 -2.234587,0.302795 -0.0115,0.01057 0.02076,0.0828 0.07168,0.160517 0.05092,0.07772 0.100759,0.182197 0.110749,0.232181 0.01,0.04998 0.08278,0.344586 0.161759,0.654674 0.166048,0.651951 0.35277,2.849838 0.353938,4.166161 9.6e-4,1.08397 -0.10359,2.694929 -0.17661,2.721237 -0.0996,0.03588 -0.296036,0.271866 -0.388491,0.466702 -0.04819,0.101552 -0.152887,0.262208 -0.232659,0.357012 l -0.145041,0.17237 -0.816278,-0.0366 c -0.448954,-0.02013 -0.895594,-0.05043 -0.992534,-0.06733 -0.170196,-0.02968 -0.176256,-0.03971 -0.176256,-0.291885 0,-0.20274 -0.02123,-0.266915 -0.09491,-0.286925 -0.0522,-0.01418 -0.0099,-0.02207 0.09402,-0.01753 0.177968,0.0078 0.199086,-0.01064 0.363919,-0.317154 0.09624,-0.178968 0.209179,-0.32257 0.25097,-0.319116 0.08271,0.0068 0.11355,-0.331247 0.176192,-1.931531 0.03969,-1.014044 -0.0957,-3.564066 -0.224595,-4.230132 -0.116088,-0.599875 -0.323319,-1.119601 -0.460751,-1.15554 -0.109396,-0.02861 -0.142673,-0.170495 -0.05299,-0.225924 0.02853,-0.01763 0.03851,-0.06686 0.02219,-0.109394 -0.03915,-0.102034 -0.01067,-0.108266 1.13447,-0.248221 l 0.581142,-0.07103 -3.38e-4,-6.511236 c -1.62e-4,-3.58118 -0.02364,-7.157958 -0.05213,-7.948396 -0.02849,-0.790438 -0.06589,-1.864241 -0.08311,-2.386228 -0.01722,-0.521987 -0.05412,-1.586499 -0.08198,-2.365581 l -0.05067,-1.416513 -0.624532,-0.996831 c -0.609671,-0.973114 -0.646805,-1.018936 -1.560648,-1.925826 l -0.936117,-0.928993 -3.145483,-0.279978 c -1.730016,-0.153988 -3.3529221,-0.297247 -3.6064588,-0.318353 -0.5187557,-0.04319 -0.3311597,-0.05637 -4.5555265,0.320286 l -3.1183664,0.278045 -0.9361173,0.928993 c -0.91384355,0.90689 -0.95097706,0.952712 -1.5606486,1.925826 l -0.6245312,0.996831 -0.050667,1.416513 c -0.027867,0.779082 -0.064759,1.843594 -0.081984,2.365581 -0.017224,0.521987 -0.054624,1.59579 -0.083111,2.386228 -0.028487,0.790438 -0.051946,4.367216 -0.052132,7.948396 l -3.379e-4,6.511236 0.58115231,0.07103 c 1.14514061,0.139955 1.17362349,0.146187 1.13446983,0.248221 -0.0163234,0.04254 -0.00634,0.09176 0.0221849,0.109394 0.0896858,0.05543 0.0564083,0.197316 -0.0529878,0.225924 -0.13743156,0.03594 -0.34466301,0.555665 -0.46075084,1.15554 -0.128897,0.666066 -0.26428779,3.216088 -0.22459451,4.230132 0.0626412,1.600284 0.093481,1.938367 0.17619204,1.931531 0.0417904,-0.0035 0.15472683,0.140148 0.25096992,0.319116 0.16483306,0.306512 0.18595063,0.324916 0.36391824,0.317154 0.10391156,-0.0045 0.14622264,0.0034 0.0940239,0.01753 -0.0736797,0.02001 -0.0949068,0.08419 -0.0949068,0.286925 0,0.252171 -0.00606,0.262206 -0.17625549,0.291885 -0.09694052,0.0169 -0.54358062,0.04721 -0.99253426,0.06733 l -0.81627854,0.0366 z m 9.8311179,-38.532669 c 0.5816431,-0.03897 1.179556,-0.06267 1.3286952,-0.05265 0.1491393,0.01001 0.6860407,0.0438 1.1931137,0.07507 0.507074,0.03128 1.06838,0.07024 1.247347,0.08658 l 0.325395,0.02972 -0.332758,-0.223417 c -0.323693,-0.21733 -0.352501,-0.225523 -1.057533,-0.300744 -0.9259006,-0.09879 -2.2590884,-0.09879 -3.1849889,0 -0.7026222,0.07496 -0.7349463,0.0841 -1.0575329,0.298754 l -0.3327579,0.221427 0.4067434,-0.03194 c 0.2237089,-0.01757 0.8826333,-0.06383 1.4642764,-0.1028 z m -11.3989849,38.382699 c 0.039149,-0.01567 0.085924,-0.01374 0.1039455,0.0043 0.018021,0.01802 -0.01401,0.03084 -0.07118,0.02848 -0.063178,-0.0026 -0.076029,-0.01545 -0.032765,-0.03277 z m 24.9469308,0 c 0.03915,-0.01567 0.08592,-0.01374 0.103946,0.0043 0.01802,0.01802 -0.01401,0.03084 -0.07118,0.02848 -0.06318,-0.0026 -0.07603,-0.01545 -0.03277,-0.03277 z m -24.4046063,-0.05423 c 0.039149,-0.01567 0.085925,-0.01374 0.1039456,0.0043 0.018021,0.01802 -0.01401,0.03084 -0.07118,0.02848 -0.063178,-0.0026 -0.076028,-0.01545 -0.032766,-0.03277 z m 23.8622823,0 c 0.03915,-0.01567 0.08592,-0.01374 0.103945,0.0043 0.01802,0.01802 -0.01401,0.03084 -0.07118,0.02848 -0.06318,-0.0026 -0.07603,-0.01545 -0.03277,-0.03277 z m -23.3199577,-0.05423 c 0.039149,-0.01567 0.085925,-0.01374 0.1039456,0.0043 0.018021,0.01802 -0.01401,0.03084 -0.07118,0.02848 -0.063178,-0.0026 -0.076029,-0.01545 -0.032766,-0.03276 z m 22.7776327,0 c 0.03915,-0.01567 0.08592,-0.01374 0.103946,0.0043 0.01802,0.01802 -0.01401,0.03084 -0.07118,0.02848 -0.06318,-0.0026 -0.07603,-0.01545 -0.03277,-0.03276 z m -24.8418556,-0.2158 c 0.037285,-0.01504 0.098296,-0.01504 0.1355811,0 0.037285,0.01505 0.00678,0.02735 -0.067791,0.02735 -0.07457,0 -0.1050754,-0.01231 -0.06779,-0.02735 z m 26.8450666,0 c 0.03729,-0.01504 0.0983,-0.01504 0.135582,0 0.03728,0.01505 0.0068,0.02735 -0.06779,0.02735 -0.07457,0 -0.105075,-0.01231 -0.06779,-0.02735 z m -21.63875059,-0.10847 c 0.0372848,-0.01505 0.0982963,-0.01505 0.13558119,0 0.037285,0.01505 0.00678,0.02735 -0.0677906,0.02735 -0.0745696,0 -0.10507539,-0.01231 -0.0677906,-0.02735 z m 16.43243459,0 c 0.03729,-0.01505 0.0983,-0.01505 0.135582,0 0.03728,0.01505 0.0068,0.02735 -0.06779,0.02735 -0.07457,0 -0.105075,-0.01231 -0.06779,-0.02735 z m -15.8867205,-0.05536 c 0.039149,-0.01567 0.085924,-0.01374 0.1039458,0.0043 0.018021,0.01802 -0.01401,0.03084 -0.07118,0.02848 -0.063178,-0.0026 -0.076029,-0.01545 -0.032766,-0.03277 z m 15.4020185,0 c 0.03915,-0.01567 0.08592,-0.01374 0.103946,0.0043 0.01802,0.01802 -0.01401,0.03084 -0.07118,0.02848 -0.06318,-0.0026 -0.07603,-0.01545 -0.03276,-0.03277 z m -14.8596939,-0.05423 c 0.039149,-0.01567 0.085924,-0.01374 0.1039457,0.0043 0.018021,0.01802 -0.01401,0.03084 -0.07118,0.02848 -0.063178,-0.0026 -0.076028,-0.01545 -0.032766,-0.03277 z m 14.3173689,0 c 0.03915,-0.01567 0.08592,-0.01374 0.103946,0.0043 0.01802,0.01802 -0.01401,0.03084 -0.07118,0.02848 -0.06318,-0.0026 -0.07603,-0.01545 -0.03277,-0.03277 z m -13.8326663,-0.0531 c 0.037285,-0.01505 0.098296,-0.01505 0.1355812,0 0.037285,0.01504 0.00678,0.02735 -0.067791,0.02735 -0.07457,0 -0.1050754,-0.01231 -0.06779,-0.02735 z m 13.2869523,0 c 0.03729,-0.01505 0.0983,-0.01505 0.135581,0 0.03729,0.01504 0.0068,0.02735 -0.06779,0.02735 -0.07457,0 -0.105076,-0.01231 -0.06779,-0.02735 z m -12.4599073,-0.07388 c 0.1938811,-0.02272 0.4989386,-0.05598 0.6779058,-0.07391 0.7488732,-0.07501 1.9658219,-0.201306 2.1421821,-0.222315 0.1043975,-0.01244 0.3484435,-0.0372 0.5423246,-0.05503 0.193881,-0.01783 0.6941754,-0.07253 1.1117654,-0.121573 0.4175899,-0.04904 1.0521097,-0.08916 1.4100439,-0.08916 0.3579342,0 0.9924535,0.04012 1.4100435,0.08916 0.41759,0.04904 0.917885,0.103747 1.111766,0.121573 0.193881,0.01783 0.437927,0.04259 0.542324,0.05503 0.176361,0.02101 1.393309,0.147304 2.142183,0.222315 0.178967,0.01793 0.484024,0.05118 0.677905,0.07391 0.193881,0.02272 -2.454018,0.04131 -5.8842215,0.04131 -3.430203,0 -6.0781028,-0.01859 -5.8842218,-0.04131 z m 12.9344413,-8.982575 c -0.300781,-0.04634 -0.811354,-0.246847 -1.084649,-0.425945 -0.711847,-0.466497 -1.16467,-1.314639 -1.165584,-2.183151 -4.33e-4,-0.43504 0.128184,-0.991671 0.280617,-1.214225 0.05423,-0.07917 0.0986,-0.170181 0.0986,-0.202239 0,-0.03206 0.164871,-0.223526 0.366381,-0.425487 0.558242,-0.559496 1.11855,-0.796278 1.884266,-0.796278 0.481585,0 0.77768,0.06909 1.220231,0.284713 0.382846,0.186535 0.72697,0.485357 0.967869,0.840456 0.244563,0.360499 0.324077,0.557848 0.420613,1.043935 0.08451,0.425537 0.08456,0.486975 7.65e-4,0.908928 -0.122181,0.615218 -0.31063,0.972015 -0.734871,1.391362 -0.343411,0.339448 -0.835289,0.650789 -1.028161,0.650789 -0.05094,0 -0.115798,0.02253 -0.144134,0.05006 -0.05985,0.05815 -0.84278,0.113931 -1.081938,0.07708 z m 1.175514,-1.03721 c 0.359019,-0.186267 0.641266,-0.479379 0.827141,-0.858984 0.131744,-0.269059 0.15336,-0.376996 0.150282,-0.750438 -0.0029,-0.355564 -0.0298,-0.489767 -0.145405,-0.726125 -0.192118,-0.392805 -0.457054,-0.665791 -0.829017,-0.854204 -0.275685,-0.139644 -0.365934,-0.157247 -0.798888,-0.155817 -0.578133,0.0019 -0.85999,0.113396 -1.235152,0.488558 -0.395744,0.395744 -0.500424,0.661675 -0.499483,1.268907 7.05e-4,0.456593 0.0182,0.551846 0.146139,0.795684 0.170082,0.324159 0.646144,0.773744 0.865841,0.817683 0.08427,0.01685 0.153215,0.05059 0.153215,0.07498 0,0.06171 0.399085,0.09442 0.779586,0.0639 0.193416,-0.01551 0.423577,-0.08001 0.585741,-0.164146 z m -15.8725102,0.964301 c -0.018435,-0.02983 -0.09342,-0.05423 -0.1666341,-0.05423 -0.073214,0 -0.175493,-0.02355 -0.2272872,-0.05233 -0.051794,-0.02878 -0.2137919,-0.104291 -0.35999502,-0.167798 -0.35188514,-0.15285 -0.94367136,-0.743004 -1.04365432,-1.040777 -0.0175268,-0.0522 -0.0534255,-0.09491 -0.0797743,-0.09491 -0.0263488,0 -0.0479073,-0.04583 -0.0479073,-0.101842 0,-0.05601 -0.0366069,-0.189454 -0.0813487,-0.296537 -0.11825063,-0.283013 -0.11057511,-1.227818 0.0128444,-1.581106 0.0521011,-0.149139 0.10736563,-0.283365 0.12280995,-0.298279 0.0154449,-0.01491 0.076657,-0.122542 0.13602693,-0.239174 0.14285156,-0.280632 0.54288481,-0.683317 0.81296788,-0.818358 0.11931141,-0.05966 0.22913214,-0.120868 0.24404607,-0.136027 0.0149139,-0.01516 0.14913926,-0.07019 0.29827851,-0.122291 0.3667562,-0.128125 1.2600912,-0.129183 1.6614206,-0.002 0.160021,0.05072 0.3031502,0.105635 0.3180641,0.122023 0.014914,0.01639 0.1125324,0.07703 0.2169299,0.134751 0.326904,0.180756 0.7440059,0.621191 0.8947672,0.944823 0.07841,0.168319 0.1654128,0.348411 0.1933393,0.400205 0.027926,0.05179 0.050775,0.154074 0.050775,0.227287 0,0.07321 0.024405,0.1482 0.054233,0.166635 0.029828,0.01843 0.054232,0.213671 0.054232,0.433859 0,0.220188 -0.024405,0.415425 -0.054232,0.43386 -0.029828,0.01843 -0.054233,0.09011 -0.054233,0.159275 0,0.120274 -0.092916,0.391768 -0.2329186,0.680575 -0.1568132,0.323482 -0.6916993,0.858368 -1.0151812,1.015181 -0.2888063,0.140004 -0.5603011,0.23292 -0.6805751,0.23292 -0.069166,0 -0.1408401,0.02441 -0.1592748,0.05423 -0.018435,0.02983 -0.2136715,0.05423 -0.4338596,0.05423 -0.2201881,0 -0.415425,-0.02441 -0.4338597,-0.05423 z m 1.1253235,-0.789346 c 0.082027,-0.02023 0.1491393,-0.05835 0.1491393,-0.0847 0,-0.02635 0.032873,-0.04791 0.073051,-0.04791 0.040177,0 0.124048,-0.04423 0.1863785,-0.09829 0.06233,-0.05406 0.1758851,-0.145268 0.2523442,-0.202686 0.076459,-0.05742 0.1390162,-0.135211 0.1390162,-0.172873 0,-0.03766 0.02394,-0.06848 0.053199,-0.06848 0.029259,0 0.068512,-0.06101 0.087228,-0.135581 0.018716,-0.07457 0.055787,-0.135581 0.082382,-0.135581 0.026594,0 0.048353,-0.04393 0.048353,-0.09762 0,-0.05369 0.025746,-0.123364 0.057214,-0.154832 0.074159,-0.07416 0.073463,-1.04861 -8.026e-4,-1.122875 -0.031026,-0.03103 -0.056411,-0.112542 -0.056411,-0.181146 0,-0.0686 -0.02276,-0.124734 -0.050578,-0.124734 -0.027818,0 -0.065811,-0.048 -0.08443,-0.106658 -0.089662,-0.2825 -0.7797223,-0.815294 -1.0559461,-0.815294 -0.060844,0 -0.1106255,-0.02441 -0.1106255,-0.05423 0,-0.0316 -0.179708,-0.05423 -0.4306589,-0.05423 -0.2368624,0 -0.445742,0.02441 -0.4641767,0.05423 -0.018435,0.02983 -0.087313,0.05423 -0.1530641,0.05423 -0.346214,0 -1.17563114,0.838974 -1.17563114,1.189177 0,0.0583 -0.0244046,0.121083 -0.0542325,0.139518 -0.0298279,0.01844 -0.05423246,0.227314 -0.05423246,0.464177 0,0.250951 0.02263067,0.430659 0.05423246,0.430659 0.0298278,0 0.0542325,0.04978 0.0542325,0.110625 0,0.308612 0.5184135,0.941595 0.91300394,1.114778 0.1093186,0.04798 0.2475707,0.108571 0.3072264,0.134649 0.2215396,0.09684 0.7630599,0.08177 1.2337884,-0.03433 z m 6.1960584,0.789346 c -0.018435,-0.02983 -0.09342,-0.05423 -0.1666341,-0.05423 -0.073214,0 -0.1754929,-0.02355 -0.2272871,-0.05233 -0.051794,-0.02878 -0.213792,-0.104291 -0.3599951,-0.167798 -0.3518851,-0.15285 -0.9436713,-0.743004 -1.0436543,-1.040777 -0.017527,-0.0522 -0.053425,-0.09491 -0.079774,-0.09491 -0.026349,0 -0.047907,-0.04583 -0.047907,-0.101842 0,-0.05601 -0.036607,-0.189454 -0.081349,-0.296537 -0.071099,-0.170162 -0.081349,-1.232764 -0.081349,-8.433147 0,-7.301221 0.00953,-8.262342 0.083749,-8.448447 0.1363822,-0.341967 0.3697521,-0.779435 0.4157938,-0.779435 0.02353,0 0.042781,-0.02628 0.042781,-0.0584 0,-0.0759 0.2995535,-0.375456 0.3754556,-0.375456 0.032122,0 0.058404,-0.02069 0.058404,-0.04599 0,-0.02529 0.1891357,-0.141214 0.4203016,-0.257604 0.4056018,-0.204218 0.4422852,-0.212246 1.0488774,-0.229522 0.4820355,-0.01373 0.67639,0.0021 0.8336685,0.06779 0.1128,0.04713 0.25092,0.08569 0.306933,0.08569 0.05601,0 0.101842,0.02156 0.101842,0.04791 0,0.02635 0.04271,0.06225 0.09491,0.07977 0.297773,0.09998 0.887927,0.69177 1.040777,1.043655 0.06351,0.146203 0.139016,0.308201 0.167797,0.359995 0.02878,0.05179 0.05233,0.154073 0.05233,0.227287 0,0.07321 0.0244,0.148199 0.05423,0.166634 0.03576,0.0221 0.05423,2.783429 0.05423,8.107752 0,5.324323 -0.01847,8.085651 -0.05423,8.107752 -0.02983,0.01844 -0.05423,0.09011 -0.05423,0.159275 0,0.120274 -0.09292,0.391769 -0.232919,0.680575 -0.156813,0.323482 -0.691699,0.858368 -1.015181,1.015181 -0.288806,0.140003 -0.5603009,0.232919 -0.6805749,0.232919 -0.069166,0 -0.1408401,0.02441 -0.1592748,0.05423 -0.018435,0.02983 -0.2136716,0.05423 -0.4338597,0.05423 -0.2201881,0 -0.415425,-0.02441 -0.4338597,-0.05423 z m 1.1253236,-0.789346 c 0.082027,-0.02023 0.1491397,-0.05835 0.1491397,-0.0847 0,-0.02635 0.03287,-0.04791 0.07305,-0.04791 0.04018,0 0.124048,-0.04423 0.186379,-0.09829 0.06233,-0.05406 0.175885,-0.145268 0.252344,-0.202686 0.07646,-0.05742 0.139016,-0.135211 0.139016,-0.172873 0,-0.03766 0.02394,-0.06848 0.0532,-0.06848 0.02926,0 0.06851,-0.06101 0.08723,-0.135581 0.01872,-0.07457 0.05579,-0.135581 0.08238,-0.135581 0.02659,0 0.04835,-0.04393 0.04835,-0.09762 0,-0.05369 0.02597,-0.123584 0.0577,-0.155321 0.08631,-0.08631 0.09173,-16.464117 0.0055,-16.492876 -0.03474,-0.01158 -0.06316,-0.06946 -0.06316,-0.128616 0,-0.09936 -0.138111,-0.314584 -0.406743,-0.633833 -0.142547,-0.169408 -0.618146,-0.441524 -0.7728126,-0.44217 -0.067113,-2.79e-4 -0.1220231,-0.02491 -0.1220231,-0.05474 0,-0.0319 -0.1898136,-0.05423 -0.4609759,-0.05423 -0.2711623,0 -0.4609759,0.02233 -0.4609759,0.05423 0,0.02983 -0.056828,0.05423 -0.1262835,0.05423 -0.3628689,0 -1.1752955,0.82829 -1.1752955,1.198245 0,0.05331 -0.024405,0.112015 -0.054232,0.13045 -0.075103,0.04642 -0.075103,16.242621 0,16.242621 0.029828,0 0.054232,0.04752 0.054232,0.105595 0,0.309826 0.5252978,0.950556 0.9212902,1.12374 0.1047614,0.04582 0.2392844,0.104639 0.2989401,0.130717 0.2215396,0.09684 0.7630599,0.08177 1.2337885,-0.03433 z m -8.4928931,-6.89458 c -0.02431,-0.02431 -0.06047,-0.04558 -0.080355,-0.04726 -0.57234878,-0.04847 -1.43124233,-0.691272 -1.69880305,-1.2714 -0.20847337,-0.452014 -0.25911781,-0.695549 -0.26083372,-1.254282 -0.002153,-0.70037 0.0897357,-0.984813 0.50582343,-1.565806 0.23949813,-0.334417 0.4536274,-0.501732 0.92956604,-0.726337 0.1789671,-0.08446 0.3677715,-0.175225 0.4195656,-0.201704 0.1186536,-0.06066 1.2491634,-0.06366 1.3185847,-0.0035 0.028336,0.02456 0.1918473,0.09062 0.3633575,0.146813 0.1715101,0.05619 0.3118366,0.11702 0.3118366,0.135178 0,0.01816 0.0925,0.085 0.2055573,0.148545 0.1130562,0.06354 0.2845252,0.202309 0.3810416,0.308374 0.2373299,0.260808 0.6065152,0.97383 0.6065152,1.171387 0,0.08807 0.024405,0.160121 0.054233,0.160121 0.031602,0 0.054232,0.179708 0.054232,0.430659 0,0.236862 -0.024405,0.445742 -0.054232,0.464176 -0.029828,0.01844 -0.054233,0.08371 -0.054233,0.145061 0,0.147648 -0.1767853,0.64131 -0.2296593,0.64131 -0.022826,0 -0.041503,0.03075 -0.041503,0.06835 0,0.03759 -0.061012,0.134143 -0.1355811,0.214562 -0.07457,0.08042 -0.1355812,0.165855 -0.1355812,0.189855 0,0.024 -0.075765,0.10438 -0.1683674,0.178623 -0.092602,0.07424 -0.1967005,0.161513 -0.2313307,0.193935 -0.1332491,0.124753 -0.5689077,0.337893 -0.8244744,0.403364 -0.324559,0.08314 -1.174072,0.131266 -1.2353595,0.06998 z m 1.2393017,-0.820391 c 0.4127177,-0.173702 0.7823916,-0.540655 0.9800966,-0.972882 0.1189762,-0.260109 0.1412343,-0.384949 0.1393497,-0.781572 -0.00123,-0.259611 -0.025023,-0.516356 -0.052867,-0.570545 -0.027843,-0.05419 -0.083977,-0.169634 -0.1247423,-0.256544 -0.1158568,-0.247008 -0.5242977,-0.672564 -0.7432406,-0.774386 -0.109228,-0.0508 -0.2160009,-0.118036 -0.2372725,-0.149418 -0.023248,-0.0343 -0.2841325,-0.05706 -0.654006,-0.05706 -0.5468319,0 -0.6442258,0.01483 -0.8748959,0.133212 -0.2791562,0.143267 -0.68306924,0.493691 -0.68306924,0.592613 0,0.0333 -0.0206984,0.06055 -0.0459962,0.06055 -0.0252973,0 -0.0888143,0.103719 -0.14114811,0.230487 -0.0523338,0.126769 -0.11705208,0.272865 -0.14381797,0.324659 -0.06638812,0.128467 -0.0618326,0.894591 0.005568,0.936246 0.0298278,0.01844 0.0542325,0.08206 0.0542325,0.141387 0,0.265235 0.55552043,0.91056 0.97618422,1.133995 0.3009641,0.159855 1.1753611,0.165094 1.5456251,0.0093 z m 13.2056041,0.771455 c -0.428205,-0.132229 -0.832191,-0.367047 -1.111486,-0.646053 -0.288616,-0.288319 -0.352805,-0.376865 -0.491432,-0.677906 -0.04807,-0.104397 -0.112531,-0.236628 -0.143238,-0.293845 -0.07858,-0.146416 -0.130667,-0.858943 -0.09397,-1.285468 0.03791,-0.44064 0.35476,-1.127093 0.652771,-1.414215 0.120273,-0.115878 0.62855,-0.477349 0.671218,-0.477349 0.04109,0 0.370765,-0.138044 0.528961,-0.221489 0.129978,-0.06856 1.288757,-0.06446 1.288757,0.0046 0,0.02983 0.04189,0.05423 0.09309,0.05423 0.125968,0 0.568878,0.170207 0.651165,0.250237 0.03649,0.03549 0.146892,0.114309 0.245329,0.175147 0.09844,0.06084 0.251614,0.200093 0.340392,0.309456 0.187382,0.230833 0.459692,0.712888 0.459692,0.81377 0,0.03813 0.03051,0.07949 0.06779,0.09192 0.100521,0.03351 0.09405,1.433581 -0.0076,1.645822 -0.04147,0.08657 -0.114681,0.242202 -0.162697,0.345839 -0.04802,0.103636 -0.142214,0.249815 -0.209327,0.32484 -0.06711,0.07503 -0.122023,0.156707 -0.122023,0.181513 0,0.08441 -0.455057,0.445682 -0.732138,0.581252 -0.08948,0.04378 -0.1749,0.09302 -0.189814,0.10942 -0.01491,0.0164 -0.179276,0.07135 -0.36525,0.122109 -0.400297,0.10926 -1.027269,0.112101 -1.370188,0.0062 z m 1.43716,-0.771455 c 0.376909,-0.158632 0.755703,-0.514523 0.93439,-0.877898 0.200333,-0.40739 0.241659,-0.889223 0.118613,-1.382928 -0.107216,-0.430191 -0.473177,-0.873508 -0.944538,-1.14419 -0.251309,-0.144316 -0.313111,-0.155778 -0.844102,-0.156553 -0.500011,-7.32e-4 -0.605348,0.01581 -0.827544,0.12997 -0.280921,0.144326 -0.687466,0.471704 -0.687466,0.553593 0,0.02875 -0.04975,0.105679 -0.110564,0.17095 -0.06081,0.06527 -0.123296,0.180174 -0.138857,0.255337 -0.01556,0.07516 -0.05122,0.179037 -0.07925,0.230831 -0.0681,0.125861 -0.06542,0.893791 0.0033,0.936246 0.02983,0.01844 0.05423,0.08098 0.05423,0.138978 0,0.281503 0.497592,0.891769 0.892663,1.094797 0.386265,0.198504 1.21675,0.224434 1.629147,0.05087 z M 1.5259128,-51.253077 c -0.96858683,-0.149834 -1.83379901,-0.93109 -2.09968882,-1.895945 -0.0826443,-0.299896 -0.11510839,-1.036547 -0.0531982,-1.20713 0.0286722,-0.079 0.0966737,-0.283968 0.15111387,-0.455478 0.0544402,-0.171511 0.11833306,-0.311837 0.14198437,-0.311837 0.0236508,0 0.0430015,-0.03505 0.0430015,-0.0779 0,-0.04284 0.1647311,-0.24723 0.3660691,-0.454189 0.2759662,-0.283672 0.47285769,-0.427917 0.79992877,-0.586038 0.43005911,-0.207911 0.43960451,-0.209752 1.08965541,-0.210158 0.3824766,-2.17e-4 0.7102158,0.02554 0.7863706,0.06185 0.071816,0.03424 0.2281934,0.104359 0.3475048,0.155813 0.5382919,0.232141 1.1122318,0.817265 1.302175,1.327551 0.049962,0.134225 0.1180598,0.300751 0.1513276,0.370057 0.033268,0.06931 0.060239,0.374363 0.059936,0.677905 -4.881e-4,0.478181 -0.021216,0.60435 -0.1552697,0.944627 -0.273099,0.693224 -0.905329,1.313378 -1.5789461,1.548787 -0.2745117,0.09593 -1.0439851,0.159726 -1.3519642,0.112085 z m 1.2344344,-1.014065 c 0.3800578,-0.186466 0.6424029,-0.453614 0.8344477,-0.849724 0.1986155,-0.409664 0.2092429,-1.0438 0.024139,-1.440349 -0.2508701,-0.537438 -0.5192226,-0.768983 -1.2142951,-1.047741 -0.1881519,-0.07546 -0.779014,-0.08019 -0.8244933,-0.0066 -0.018435,0.02983 -0.081372,0.05423 -0.1398596,0.05423 -0.058488,0 -0.2095764,0.06413 -0.3357521,0.142512 -1.16174491,0.721686 -1.21403747,2.285778 -0.1014705,3.035025 0.3523993,0.237319 0.5533815,0.291027 1.0380581,0.277398 0.3211841,-0.009 0.4724748,-0.04369 0.719226,-0.16475 z m 13.4083298,0.994179 c -0.01844,-0.02983 -0.09342,-0.05423 -0.166634,-0.05423 -0.07321,0 -0.175493,-0.02285 -0.227288,-0.05077 -0.05179,-0.02793 -0.228396,-0.113571 -0.392449,-0.19032 -0.164053,-0.07675 -0.405772,-0.242361 -0.537153,-0.368026 -0.252511,-0.241524 -0.601729,-0.745751 -0.601729,-0.86882 0,-0.04021 -0.0305,-0.103613 -0.06779,-0.140898 -0.04845,-0.04845 -0.06779,-0.309487 -0.06779,-0.914721 0,-0.629337 0.01742,-0.852735 0.06779,-0.869527 0.03728,-0.01243 0.06779,-0.05519 0.06779,-0.09503 0,-0.06801 0.157104,-0.401262 0.217239,-0.46081 0.01508,-0.01494 0.09759,-0.121233 0.183351,-0.236214 0.181551,-0.243412 0.755547,-0.622385 1.145035,-0.755994 0.354563,-0.121629 1.30071,-0.128291 1.581107,-0.01113 0.107082,0.04474 0.240523,0.08135 0.296536,0.08135 0.05601,0 0.101842,0.02156 0.101842,0.04791 0,0.02635 0.04271,0.06225 0.09491,0.07977 0.0522,0.01753 0.143716,0.06308 0.203372,0.101232 0.167474,0.107103 0.677905,0.627157 0.677905,0.690687 0,0.03112 0.02441,0.05658 0.05423,0.05658 0.02983,0 0.05423,0.03801 0.05423,0.08447 0,0.04646 0.06616,0.198987 0.147032,0.338953 0.138215,0.239226 0.147157,0.295438 0.149139,0.937633 0.0013,0.406801 -0.02308,0.735874 -0.06015,0.813487 -0.117527,0.246029 -0.236018,0.526381 -0.236018,0.558421 0,0.01764 -0.05491,0.09766 -0.122023,0.177839 -0.330806,0.395193 -0.614424,0.624431 -0.989742,0.799969 -0.119311,0.0558 -0.259307,0.122273 -0.311101,0.147712 -0.05179,0.02544 -0.154073,0.04625 -0.227287,0.04625 -0.07321,0 -0.148199,0.0244 -0.166634,0.05423 -0.01844,0.02983 -0.213672,0.05423 -0.43386,0.05423 -0.220188,0 -0.415425,-0.02441 -0.433859,-0.05423 z m 1.027705,-0.764512 c 0.02834,-0.02694 0.09545,-0.04897 0.149139,-0.04897 0.05369,0 0.09762,-0.0244 0.09762,-0.05423 0,-0.02983 0.03287,-0.05423 0.07305,-0.05423 0.04018,0 0.131695,-0.05095 0.203372,-0.113216 0.07168,-0.06227 0.15487,-0.129382 0.184874,-0.149139 0.08619,-0.05675 0.35219,-0.429322 0.35219,-0.493281 0,-0.03182 0.01908,-0.05785 0.04239,-0.05785 0.145472,0 0.254775,-1.243034 0.121061,-1.376748 -0.03024,-0.03024 -0.05499,-0.08724 -0.05499,-0.126654 0,-0.107612 -0.273108,-0.506183 -0.488092,-0.712313 -0.218,-0.209023 -0.541673,-0.387443 -0.702861,-0.387443 -0.06084,0 -0.110626,-0.02441 -0.110626,-0.05423 0,-0.06739 -0.831867,-0.0731 -0.963362,-0.0066 -0.05179,0.02619 -0.179587,0.08705 -0.283984,0.135246 -0.322772,0.149021 -0.705022,0.457989 -0.705022,0.569861 0,0.02418 -0.04833,0.0877 -0.107404,0.141156 -0.05907,0.05346 -0.122851,0.179535 -0.14173,0.280167 -0.01888,0.100632 -0.05596,0.19634 -0.08241,0.212685 -0.06647,0.04108 -0.06084,0.930983 0.0061,0.972385 0.02983,0.01843 0.05423,0.0711 0.05423,0.117027 0,0.286405 0.525031,0.910425 0.907569,1.07868 0.112308,0.0494 0.253006,0.111151 0.312662,0.137228 0.217128,0.09491 1.033508,0.08809 1.13617,-0.0095 z"
       id="path219" /></g></svg>
