{
    "asset" : {
        "copyright" : "CC0 Public Domain",
        "generator" : "Khronos glTF Blender I/O v3.2.43",
        "version" : "2.0"
    },
    "scene" : 0,
    "scenes" : [
        {
            "name" : "Scene",
            "nodes" : [
                27
            ]
        }
    ],
    "nodes" : [
        {
            "name" : "Thumb_Tip_R",
            "rotation" : [
                8.568166975919667e-08,
                -6.332993507385254e-08,
                -3.7252898543727042e-09,
                1
            ],
            "scale" : [
                1,
                1.0000001192092896,
                1
            ],
            "translation" : [
                1.862645149230957e-09,
                0.03611383214592934,
                5.587935447692871e-09
            ]
        },
        {
            "children" : [
                0
            ],
            "name" : "Thumb_Distal_R",
            "rotation" : [
                -0.11222333461046219,
                -0.0019595040939748287,
                -0.008257427252829075,
                0.9936468601226807
            ],
            "scale" : [
                1,
                0.9999999403953552,
                1
            ],
            "translation" : [
                1.862645149230957e-09,
                0.05439222976565361,
                5.587935447692871e-09
            ]
        },
        {
            "children" : [
                1
            ],
            "name" : "Thumb_Proximal_R",
            "rotation" : [
                0.37860894203186035,
                -0.4443528354167938,
                -0.026773996651172638,
                0.8114733695983887
            ],
            "scale" : [
                1.0000001192092896,
                1,
                1.0000001192092896
            ],
            "translation" : [
                1.064108801074326e-10,
                0.05131124332547188,
                -1.5133991837501526e-09
            ]
        },
        {
            "children" : [
                2
            ],
            "name" : "Thumb_Metacarpal_R",
            "rotation" : [
                -0.5451306104660034,
                0.06418049335479736,
                -0.17721714079380035,
                0.8168889880180359
            ],
            "translation" : [
                -9.85878045867139e-14,
                0.027139686048030853,
                -3.2249758419311547e-12
            ]
        },
        {
            "name" : "Index_Tip_R",
            "rotation" : [
                1.9557776909095992e-07,
                -5.122274160385132e-08,
                7.450581307466564e-08,
                1
            ],
            "scale" : [
                1,
                0.9999998211860657,
                1
            ],
            "translation" : [
                4.656612873077393e-10,
                0.030283881351351738,
                -5.587935447692871e-09
            ]
        },
        {
            "children" : [
                4
            ],
            "name" : "Index_Distal_R",
            "rotation" : [
                -0.04738333076238632,
                -0.0532703772187233,
                -0.03823677450418472,
                0.9967221617698669
            ],
            "scale" : [
                0.9999998807907104,
                1,
                0.9999998807907104
            ],
            "translation" : [
                4.6566128730773926e-09,
                0.027131928130984306,
                -1.862645149230957e-09
            ]
        },
        {
            "children" : [
                5
            ],
            "name" : "Index_Intermediate_R",
            "rotation" : [
                -0.09570380300283432,
                -0.09041743725538254,
                -0.2260887175798416,
                0.9651680588722229
            ],
            "scale" : [
                0.9999998807907104,
                0.9999999403953552,
                1
            ],
            "translation" : [
                -1.862645149230957e-09,
                0.04101669415831566,
                -2.3283064365386963e-09
            ]
        },
        {
            "children" : [
                6
            ],
            "name" : "Index_Proximal_R",
            "rotation" : [
                -0.032867182046175,
                -0.9772279262542725,
                0.03538817912340164,
                0.20662328600883484
            ],
            "scale" : [
                1,
                1,
                0.9999999403953552
            ],
            "translation" : [
                3.2523530535399914e-09,
                0.08452088385820389,
                -1.000444171950221e-09
            ]
        },
        {
            "children" : [
                7
            ],
            "name" : "Index_Metacarpal_R",
            "rotation" : [
                -0.1361125260591507,
                0.8873788714408875,
                -0.0801626518368721,
                0.4331352114677429
            ],
            "scale" : [
                1,
                0.9999997019767761,
                1
            ],
            "translation" : [
                -9.85878045867139e-14,
                0.027139686048030853,
                -3.2249758419311547e-12
            ]
        },
        {
            "name" : "Middle_Tip_R",
            "rotation" : [
                -1.3969838619232178e-08,
                1.1175870895385742e-08,
                1.1036173219736156e-07,
                1
            ],
            "scale" : [
                1,
                0.9999999403953552,
                1
            ],
            "translation" : [
                -4.6566128730773926e-09,
                0.030862819403409958,
                2.561137080192566e-09
            ]
        },
        {
            "children" : [
                9
            ],
            "name" : "Middle_Distal_R",
            "rotation" : [
                -0.030610132962465286,
                -0.033854465931653976,
                -0.05315905809402466,
                0.9975425004959106
            ],
            "scale" : [
                0.9999998807907104,
                0.9999998211860657,
                0.9999999403953552
            ],
            "translation" : [
                2.3283064365386963e-09,
                0.03123665787279606,
                -1.3969838619232178e-09
            ]
        },
        {
            "children" : [
                10
            ],
            "name" : "Middle_Intermediate_R",
            "rotation" : [
                -0.10158054530620575,
                -0.056125394999980927,
                -0.10271403193473816,
                0.9879176020622253
            ],
            "scale" : [
                0.9999998807907104,
                1,
                0.9999998807907104
            ],
            "translation" : [
                2.3283064365386963e-10,
                0.047306548804044724,
                -8.149072527885437e-10
            ]
        },
        {
            "children" : [
                11
            ],
            "name" : "Middle_Proximal_R",
            "rotation" : [
                0.07610508799552917,
                -0.9690507650375366,
                -0.02390441484749317,
                0.23361776769161224
            ],
            "scale" : [
                0.9999999403953552,
                0.9999995827674866,
                1
            ],
            "translation" : [
                -1.407897798344493e-09,
                0.08190040290355682,
                -1.1823431123048067e-10
            ]
        },
        {
            "children" : [
                12
            ],
            "name" : "Middle_Metacarpal_R",
            "rotation" : [
                -0.09144244343042374,
                0.8882805109024048,
                0.06396762281656265,
                0.44553807377815247
            ],
            "scale" : [
                1,
                1.0000001192092896,
                0.9999999403953552
            ],
            "translation" : [
                -9.85878045867139e-14,
                0.027139686048030853,
                -3.2249758419311547e-12
            ]
        },
        {
            "name" : "Ring_Tip_R",
            "rotation" : [
                1.0896472701915627e-07,
                2.15368327616261e-08,
                -7.264316082000732e-08,
                1
            ],
            "scale" : [
                1,
                1.0000001192092896,
                1.0000001192092896
            ],
            "translation" : [
                -5.122274160385132e-09,
                0.03054412081837654,
                -1.4551915228366852e-09
            ]
        },
        {
            "children" : [
                14
            ],
            "name" : "Ring_Distal_R",
            "rotation" : [
                -0.0147154675796628,
                -0.017073579132556915,
                -0.07301277667284012,
                0.9970762729644775
            ],
            "scale" : [
                0.9999998807907104,
                1,
                0.9999999403953552
            ],
            "translation" : [
                -9.313225746154785e-10,
                0.028609957545995712,
                1.3969838619232178e-09
            ]
        },
        {
            "children" : [
                15
            ],
            "name" : "Ring_Intermediate_R",
            "rotation" : [
                -0.10155956447124481,
                -0.04130067676305771,
                -0.12218325585126877,
                0.9864335656166077
            ],
            "scale" : [
                0.9999999403953552,
                1,
                1.0000001192092896
            ],
            "translation" : [
                -3.7834979593753815e-10,
                0.043000366538763046,
                1.862645149230957e-09
            ]
        },
        {
            "children" : [
                16
            ],
            "name" : "Ring_Proximal_R",
            "rotation" : [
                0.0007482588989660144,
                -0.9633263945579529,
                -0.04134255275130272,
                0.26512739062309265
            ],
            "scale" : [
                0.9999998807907104,
                0.9999998807907104,
                0.9999998807907104
            ],
            "translation" : [
                -3.7471181713044643e-10,
                0.07787550240755081,
                1.544094629934989e-09
            ]
        },
        {
            "children" : [
                17
            ],
            "name" : "Ring_Metacarpal_R",
            "rotation" : [
                -0.0004449115658644587,
                0.878891110420227,
                0.17465825378894806,
                0.44389721751213074
            ],
            "scale" : [
                0.9999998807907104,
                0.9999998211860657,
                0.9999999403953552
            ],
            "translation" : [
                -9.85878045867139e-14,
                0.027139686048030853,
                -3.2249758419311547e-12
            ]
        },
        {
            "name" : "Little_Tip_R",
            "rotation" : [
                -6.332993507385254e-08,
                3.4458935260772705e-08,
                0,
                1
            ],
            "scale" : [
                1,
                1,
                1.0000001192092896
            ],
            "translation" : [
                -3.259629011154175e-09,
                0.02283710613846779,
                -3.725290298461914e-09
            ]
        },
        {
            "children" : [
                19
            ],
            "name" : "Little_Distal_R",
            "rotation" : [
                0.000950867950450629,
                0.0032703541219234467,
                -0.0210766289383173,
                0.9997720718383789
            ],
            "scale" : [
                1.0000001192092896,
                1,
                1
            ],
            "translation" : [
                6.984919309616089e-10,
                0.018024403601884842,
                -1.3969838619232178e-09
            ]
        },
        {
            "children" : [
                20
            ],
            "name" : "Little_Intermediate_R",
            "rotation" : [
                -0.11775710433721542,
                -0.04930217191576958,
                -0.14966151118278503,
                0.9804611802101135
            ],
            "scale" : [
                0.9999999403953552,
                0.9999999403953552,
                1
            ],
            "translation" : [
                -2.3283064365386963e-09,
                0.03312355652451515,
                -1.3969838619232178e-09
            ]
        },
        {
            "children" : [
                21
            ],
            "name" : "Little_Proximal_R",
            "rotation" : [
                -0.06400543451309204,
                -0.9579145908355713,
                -0.0858190581202507,
                0.2663421034812927
            ],
            "scale" : [
                0.9999999403953552,
                0.9999998211860657,
                1
            ],
            "translation" : [
                2.7225723897572607e-09,
                0.07701808959245682,
                2.8181830202811398e-09
            ]
        },
        {
            "children" : [
                22
            ],
            "name" : "Little_Metacarpal_R",
            "rotation" : [
                0.110805943608284,
                0.8568627238273621,
                0.263299822807312,
                0.42916378378868103
            ],
            "scale" : [
                1.0000001192092896,
                1.0000001192092896,
                1
            ],
            "translation" : [
                -9.85878045867139e-14,
                0.027139686048030853,
                -3.2249758419311547e-12
            ]
        },
        {
            "name" : "Palm_R",
            "rotation" : [
                -0.5063397884368896,
                0.5047793984413147,
                -0.49274343252182007,
                0.4960057735443115
            ],
            "scale" : [
                1,
                1.0000001192092896,
                1.0000001192092896
            ],
            "translation" : [
                0.03171547129750252,
                0.06705550104379654,
                0.041365984827280045
            ]
        },
        {
            "children" : [
                3,
                8,
                13,
                18,
                23,
                24
            ],
            "name" : "Wrist_R",
            "rotation" : [
                -0.007898452691733837,
                0.7076518535614014,
                -0.7064726948738098,
                0.00792459212243557
            ],
            "scale" : [
                1,
                0.9999997615814209,
                1
            ],
            "translation" : [
                -3.8642522071086205e-08,
                -1.8697472114581615e-05,
                0.027175573632121086
            ]
        },
        {
            "mesh" : 0,
            "name" : "mesh_Hand_Nails_R",
            "skin" : 0
        },
        {
            "children" : [
                26,
                25
            ],
            "name" : "Armature"
        }
    ],
    "meshes" : [
        {
            "name" : "mesh_Hand_Nails_R",
            "primitives" : [
                {
                    "attributes" : {
                        "POSITION" : 0,
                        "NORMAL" : 1,
                        "TEXCOORD_0" : 2,
                        "JOINTS_0" : 3,
                        "WEIGHTS_0" : 4
                    },
                    "indices" : 5
                }
            ]
        }
    ],
    "skins" : [
        {
            "inverseBindMatrices" : 6,
            "joints" : [
                25,
                3,
                2,
                1,
                0,
                8,
                7,
                6,
                5,
                4,
                13,
                12,
                11,
                10,
                9,
                18,
                17,
                16,
                15,
                14,
                23,
                22,
                21,
                20,
                19,
                24
            ],
            "name" : "Armature"
        }
    ],
    "accessors" : [
        {
            "bufferView" : 0,
            "componentType" : 5126,
            "count" : 1988,
            "max" : [
                0.030590161681175232,
                0.09075886011123657,
                0.025806419551372528
            ],
            "min" : [
                -0.03715551644563675,
                -0.0686107948422432,
                -0.18644104897975922
            ],
            "type" : "VEC3"
        },
        {
            "bufferView" : 1,
            "componentType" : 5126,
            "count" : 1988,
            "type" : "VEC3"
        },
        {
            "bufferView" : 2,
            "componentType" : 5126,
            "count" : 1988,
            "type" : "VEC2"
        },
        {
            "bufferView" : 3,
            "componentType" : 5121,
            "count" : 1988,
            "type" : "VEC4"
        },
        {
            "bufferView" : 4,
            "componentType" : 5126,
            "count" : 1988,
            "type" : "VEC4"
        },
        {
            "bufferView" : 5,
            "componentType" : 5123,
            "count" : 10224,
            "type" : "SCALAR"
        },
        {
            "bufferView" : 6,
            "componentType" : 5126,
            "count" : 26,
            "type" : "MAT4"
        }
    ],
    "bufferViews" : [
        {
            "buffer" : 0,
            "byteLength" : 23856,
            "byteOffset" : 0
        },
        {
            "buffer" : 0,
            "byteLength" : 23856,
            "byteOffset" : 23856
        },
        {
            "buffer" : 0,
            "byteLength" : 15904,
            "byteOffset" : 47712
        },
        {
            "buffer" : 0,
            "byteLength" : 7952,
            "byteOffset" : 63616
        },
        {
            "buffer" : 0,
            "byteLength" : 31808,
            "byteOffset" : 71568
        },
        {
            "buffer" : 0,
            "byteLength" : 20448,
            "byteOffset" : 103376
        },
        {
            "buffer" : 0,
            "byteLength" : 1664,
            "byteOffset" : 123824
        }
    ],
    "buffers" : [
        {
            "byteLength" : 125488,
            "uri" : "data:application/octet-stream;base64,"
        }
    ]
}
