{
    "asset" : {
        "copyright" : "CC0 Public Domain",
        "generator" : "Khronos glTF Blender I/O v3.2.43",
        "version" : "2.0"
    },
    "scene" : 0,
    "scenes" : [
        {
            "name" : "Scene",
            "nodes" : [
                27
            ]
        }
    ],
    "nodes" : [
        {
            "name" : "Thumb_Tip_L",
            "rotation" : [
                -0.07576872408390045,
                -0.019257033243775368,
                -0.03371242433786392,
                0.9963693618774414
            ],
            "scale" : [
                1.0000001192092896,
                1.000000238418579,
                1.0000001192092896
            ],
            "translation" : [
                -2.7939677238464355e-09,
                0.030749469995498657,
                -3.14321368932724e-09
            ]
        },
        {
            "children" : [
                0
            ],
            "name" : "Thumb_Distal_L",
            "rotation" : [
                0.05564067140221596,
                0.010326135903596878,
                0.013984743505716324,
                0.9982995390892029
            ],
            "scale" : [
                0.9999999403953552,
                0.9999999403953552,
                1.0000001192092896
            ],
            "translation" : [
                -2.3283064365386963e-09,
                0.04214789345860481,
                1.5133991837501526e-09
            ]
        },
        {
            "children" : [
                1
            ],
            "name" : "Thumb_Proximal_L",
            "rotation" : [
                -0.04595031589269638,
                -0.027135659009218216,
                -0.07525718957185745,
                0.9957352876663208
            ],
            "scale" : [
                1,
                1.0000001192092896,
                1
            ],
            "translation" : [
                2.3283064365386963e-10,
                0.044916488230228424,
                -2.473825588822365e-10
            ]
        },
        {
            "children" : [
                2
            ],
            "name" : "Thumb_Metacarpal_L",
            "rotation" : [
                0.3235369920730591,
                -2.565749491623137e-05,
                -0.027220426127314568,
                0.9458239078521729
            ],
            "scale" : [
                1,
                0.9999998211860657,
                0.9999998807907104
            ],
            "translation" : [
                0.009999999776482582,
                0.02717285417020321,
                0.019999971613287926
            ]
        },
        {
            "name" : "Index_Tip_L",
            "rotation" : [
                -0.052288394421339035,
                -0.0005572127993218601,
                0.10362062603235245,
                0.9932413697242737
            ],
            "scale" : [
                0.9999999403953552,
                0.9999999403953552,
                1
            ],
            "translation" : [
                8.149072527885437e-09,
                0.027394980192184448,
                1.367880031466484e-09
            ]
        },
        {
            "children" : [
                4
            ],
            "name" : "Index_Distal_L",
            "rotation" : [
                0.014225997030735016,
                -0.011990753002464771,
                -0.13454149663448334,
                0.9907333254814148
            ],
            "scale" : [
                1,
                1.0000001192092896,
                1
            ],
            "translation" : [
                5.529727786779404e-09,
                0.0313456691801548,
                1.775333657860756e-09
            ]
        },
        {
            "children" : [
                5
            ],
            "name" : "Index_Intermediate_L",
            "rotation" : [
                -0.013683199882507324,
                -0.024668212980031967,
                -0.23507100343704224,
                0.9715688824653625
            ],
            "scale" : [
                1,
                0.9999999403953552,
                1
            ],
            "translation" : [
                0,
                0.03811633586883545,
                -3.3178366720676422e-09
            ]
        },
        {
            "children" : [
                6
            ],
            "name" : "Index_Proximal_L",
            "rotation" : [
                0.11122288554906845,
                -0.0027781203389167786,
                0.11757423728704453,
                0.9868121147155762
            ],
            "scale" : [
                1,
                1.0000001192092896,
                1
            ],
            "translation" : [
                5.336175945558352e-10,
                0.08036758005619049,
                2.584926050985814e-09
            ]
        },
        {
            "children" : [
                7
            ],
            "name" : "Index_Metacarpal_L",
            "rotation" : [
                -0.0005887771840207279,
                2.10358793992782e-05,
                0.0252196304500103,
                0.9996817708015442
            ],
            "scale" : [
                0.9999999403953552,
                0.9999999403953552,
                0.9999999403953552
            ],
            "translation" : [
                -0.009999999776482582,
                0.0271772351115942,
                0.022405147552490234
            ]
        },
        {
            "name" : "Middle_Tip_L",
            "rotation" : [
                0.013688242062926292,
                7.99239132902585e-05,
                0.1684110462665558,
                0.9856218695640564
            ],
            "scale" : [
                1.0000001192092896,
                0.9999999403953552,
                1
            ],
            "translation" : [
                -2.0736479200422764e-09,
                0.023346584290266037,
                6.548361852765083e-11
            ]
        },
        {
            "children" : [
                9
            ],
            "name" : "Middle_Distal_L",
            "rotation" : [
                -0.013931511901319027,
                -0.00014242221368476748,
                -0.16861224174499512,
                0.985584020614624
            ],
            "scale" : [
                1,
                1.0000001192092896,
                0.9999999403953552
            ],
            "translation" : [
                5.973561201244593e-09,
                0.0324166864156723,
                -5.820766091346741e-11
            ]
        },
        {
            "children" : [
                10
            ],
            "name" : "Middle_Intermediate_L",
            "rotation" : [
                0.03945539891719818,
                0.004928736016154289,
                -0.13782717287540436,
                0.9896578788757324
            ],
            "translation" : [
                1.1295924196019769e-09,
                0.04500335454940796,
                6.621121428906918e-10
            ]
        },
        {
            "children" : [
                11
            ],
            "name" : "Middle_Proximal_L",
            "rotation" : [
                -0.01194659061729908,
                0.000966736872214824,
                -0.010500849224627018,
                0.9998730421066284
            ],
            "translation" : [
                -7.057678885757923e-10,
                0.0804632380604744,
                3.4924596548080444e-10
            ]
        },
        {
            "children" : [
                12
            ],
            "name" : "Middle_Metacarpal_L",
            "rotation" : [
                -0.03585463762283325,
                4.2005005525425076e-05,
                0.0499776192009449,
                0.9981066584587097
            ],
            "scale" : [
                1,
                0.9999999403953552,
                1
            ],
            "translation" : [
                -0.009999999776482582,
                0.02714575082063675,
                0.0035275884438306093
            ]
        },
        {
            "name" : "Ring_Tip_L",
            "rotation" : [
                0.03305169194936752,
                -0.006719753611832857,
                0.12635111808776855,
                0.9914120435714722
            ],
            "scale" : [
                1,
                1,
                0.9999998211860657
            ],
            "translation" : [
                5.326000973582268e-09,
                0.027049388736486435,
                3.969034878537059e-09
            ]
        },
        {
            "children" : [
                14
            ],
            "name" : "Ring_Distal_L",
            "rotation" : [
                -0.011351789347827435,
                0.012621401809155941,
                -0.13198409974575043,
                0.9911065101623535
            ],
            "scale" : [
                0.9999999403953552,
                1,
                1
            ],
            "translation" : [
                -2.3865140974521637e-09,
                0.027797557413578033,
                9.604264050722122e-10
            ]
        },
        {
            "children" : [
                15
            ],
            "name" : "Ring_Intermediate_L",
            "rotation" : [
                0.01732625439763069,
                0.01860846020281315,
                -0.16082890331745148,
                0.9866547584533691
            ],
            "scale" : [
                1.0000001192092896,
                0.9999999403953552,
                1
            ],
            "translation" : [
                8.731149137020111e-11,
                0.04013120010495186,
                9.604264050722122e-10
            ]
        },
        {
            "children" : [
                16
            ],
            "name" : "Ring_Proximal_L",
            "rotation" : [
                -0.05105672776699066,
                -0.002022986998781562,
                0.0418044812977314,
                0.9978184103965759
            ],
            "scale" : [
                0.9999999403953552,
                0.9999999403953552,
                0.9999999403953552
            ],
            "translation" : [
                6.075424607843161e-10,
                0.0739438384771347,
                1.331500243395567e-09
            ]
        },
        {
            "children" : [
                17
            ],
            "name" : "Ring_Metacarpal_L",
            "rotation" : [
                -0.07119493186473846,
                1.573348527017515e-05,
                0.018085604533553123,
                0.9972984790802002
            ],
            "scale" : [
                1,
                0.9999999403953552,
                0.9999999403953552
            ],
            "translation" : [
                -0.009999999776482582,
                0.027118019759655,
                -0.01309998705983162
            ]
        },
        {
            "name" : "Little_Tip_L",
            "rotation" : [
                0.015836291015148163,
                -0.01933973841369152,
                0.15377695858478546,
                0.9877893924713135
            ],
            "scale" : [
                1,
                1.0000001192092896,
                1
            ],
            "translation" : [
                -3.725290298461914e-09,
                0.019765090197324753,
                4.6566128730773926e-09
            ]
        },
        {
            "children" : [
                19
            ],
            "name" : "Little_Distal_L",
            "rotation" : [
                -0.018054774031043053,
                0.011455277912318707,
                -0.10707500576972961,
                0.9940209984779358
            ],
            "scale" : [
                0.9999999403953552,
                0.9999998807907104,
                1
            ],
            "translation" : [
                2.6775524020195007e-09,
                0.01802438497543335,
                7.894414011389017e-10
            ]
        },
        {
            "children" : [
                20
            ],
            "name" : "Little_Intermediate_L",
            "rotation" : [
                0.044925764203071594,
                0.03280799090862274,
                -0.18505947291851044,
                0.9811516404151917
            ],
            "scale" : [
                0.9999999403953552,
                0.9999998807907104,
                1.0000001192092896
            ],
            "translation" : [
                -4.0745362639427185e-10,
                0.03312354534864426,
                2.6921043172478676e-10
            ]
        },
        {
            "children" : [
                21
            ],
            "name" : "Little_Proximal_L",
            "rotation" : [
                -0.08928601443767548,
                0.003168066032230854,
                -0.006739117205142975,
                0.9959782958030701
            ],
            "scale" : [
                1,
                0.9999999403953552,
                1
            ],
            "translation" : [
                3.4924596548080444e-10,
                0.06571118533611298,
                -2.2009771782904863e-10
            ]
        },
        {
            "children" : [
                22
            ],
            "name" : "Little_Metacarpal_L",
            "rotation" : [
                -0.09176954627037048,
                2.456200854794588e-05,
                0.02844771184027195,
                0.9953738451004028
            ],
            "scale" : [
                1,
                0.9999999403953552,
                1
            ],
            "translation" : [
                -4.4605644178297155e-10,
                0.02708965167403221,
                -0.029999956488609314
            ]
        },
        {
            "name" : "Palm_L",
            "rotation" : [
                0.7065238952636719,
                -6.479929197666934e-06,
                -8.686721230333205e-06,
                0.7076891660690308
            ],
            "translation" : [
                0.030781937763094902,
                0.06705548614263535,
                -0.04206528514623642
            ]
        },
        {
            "children" : [
                3,
                8,
                13,
                18,
                23,
                24
            ],
            "name" : "Wrist_L",
            "rotation" : [
                -0.7065169215202332,
                6.472751010733191e-06,
                6.472751465480542e-06,
                0.7076961994171143
            ],
            "scale" : [
                1,
                0.9999999403953552,
                1
            ],
            "translation" : [
                3.8642522071086205e-08,
                -1.8697472114581615e-05,
                0.027175573632121086
            ]
        },
        {
            "mesh" : 0,
            "name" : "mesh_Hand_Nails_L",
            "skin" : 0
        },
        {
            "children" : [
                26,
                25
            ],
            "name" : "Armature"
        }
    ],
    "meshes" : [
        {
            "name" : "mesh_Hand_Nails_L",
            "primitives" : [
                {
                    "attributes" : {
                        "POSITION" : 0,
                        "NORMAL" : 1,
                        "TEXCOORD_0" : 2,
                        "JOINTS_0" : 3,
                        "WEIGHTS_0" : 4
                    },
                    "indices" : 5
                }
            ]
        }
    ],
    "skins" : [
        {
            "inverseBindMatrices" : 6,
            "joints" : [
                25,
                3,
                2,
                1,
                0,
                8,
                7,
                6,
                5,
                4,
                13,
                12,
                11,
                10,
                9,
                18,
                17,
                16,
                15,
                14,
                23,
                22,
                21,
                20,
                19,
                24
            ],
            "name" : "Armature"
        }
    ],
    "accessors" : [
        {
            "bufferView" : 0,
            "componentType" : 5126,
            "count" : 1988,
            "max" : [
                0.03656641021370888,
                0.09075886756181717,
                0.02576880156993866
            ],
            "min" : [
                -0.03117927722632885,
                -0.06861073523759842,
                -0.18647876381874084
            ],
            "type" : "VEC3"
        },
        {
            "bufferView" : 1,
            "componentType" : 5126,
            "count" : 1988,
            "type" : "VEC3"
        },
        {
            "bufferView" : 2,
            "componentType" : 5126,
            "count" : 1988,
            "type" : "VEC2"
        },
        {
            "bufferView" : 3,
            "componentType" : 5121,
            "count" : 1988,
            "type" : "VEC4"
        },
        {
            "bufferView" : 4,
            "componentType" : 5126,
            "count" : 1988,
            "type" : "VEC4"
        },
        {
            "bufferView" : 5,
            "componentType" : 5123,
            "count" : 10224,
            "type" : "SCALAR"
        },
        {
            "bufferView" : 6,
            "componentType" : 5126,
            "count" : 26,
            "type" : "MAT4"
        }
    ],
    "bufferViews" : [
        {
            "buffer" : 0,
            "byteLength" : 23856,
            "byteOffset" : 0
        },
        {
            "buffer" : 0,
            "byteLength" : 23856,
            "byteOffset" : 23856
        },
        {
            "buffer" : 0,
            "byteLength" : 15904,
            "byteOffset" : 47712
        },
        {
            "buffer" : 0,
            "byteLength" : 7952,
            "byteOffset" : 63616
        },
        {
            "buffer" : 0,
            "byteLength" : 31808,
            "byteOffset" : 71568
        },
        {
            "buffer" : 0,
            "byteLength" : 20448,
            "byteOffset" : 103376
        },
        {
            "buffer" : 0,
            "byteLength" : 1664,
            "byteOffset" : 123824
        }
    ],
    "buffers" : [
        {
            "byteLength" : 125488,
            "uri" : "data:application/octet-stream;base64,"
        }
    ]
}
