<?xml version="1.0" encoding="UTF-8" standalone="no"?>
<svg
   height="16"
   viewBox="0 0 16 16"
   width="16"
   version="1.1"
   id="svg40"
   sodipodi:docname="foot.svg"
   inkscape:version="1.2.1 (9c6d41e410, 2022-07-14)"
   xmlns:inkscape="http://www.inkscape.org/namespaces/inkscape"
   xmlns:sodipodi="http://sodipodi.sourceforge.net/DTD/sodipodi-0.dtd"
   xmlns="http://www.w3.org/2000/svg"
   xmlns:svg="http://www.w3.org/2000/svg">
  <defs
     id="defs44" />
  <sodipodi:namedview
     id="namedview42"
     pagecolor="#ffffff"
     bordercolor="#000000"
     borderopacity="0.25"
     inkscape:showpageshadow="2"
     inkscape:pageopacity="0.0"
     inkscape:pagecheckerboard="0"
     inkscape:deskcolor="#d1d1d1"
     showgrid="false"
     inkscape:zoom="22.627417"
     inkscape:cx="25.654718"
     inkscape:cy="13.412932"
     inkscape:window-width="1920"
     inkscape:window-height="1051"
     inkscape:window-x="-9"
     inkscape:window-y="-9"
     inkscape:window-maximized="1"
     inkscape:current-layer="svg40" />
  <path
     style="fill:#fd8080;fill-opacity:1;stroke-width:0.0261891"
     d="M 10.044819,9.931539 C 9.7799882,9.796189 9.3263332,9.204865 9.1824507,8.8074722 9.1150567,8.6213345 9.1130747,8.5988058 9.1126277,8.0135482 L 9.1121675,7.411198 9.2141197,6.952888 9.3160719,6.4945781 9.3280929,5.3815396 c 0.0083,-0.7685502 0.00101,-1.2913619 -0.02355,-1.6891995 C 9.2520989,2.8428903 9.2589719,1.9354066 9.3196159,1.7019654 9.3950705,1.4115129 9.4953072,1.2147127 9.6248763,1.1026311 l 0.1155004,-0.099912 0.4190263,0.012919 c 0.455795,0.014052 0.654131,0.053122 1.026564,0.2022222 0.54858,0.2196185 1.119659,0.6685668 1.275523,1.0027405 0.173923,0.3728916 0.239826,0.8748577 0.217049,1.6531852 -0.02249,0.7684764 -0.07101,1.0344577 -0.45261,2.4813776 -0.434952,1.6491948 -0.563063,2.0808353 -0.720937,2.4290176 -0.211941,0.4674268 -0.719089,1.0676688 -0.980889,1.1609458 -0.175215,0.06243 -0.339674,0.05776 -0.479284,-0.01359 z"
     id="path856" />
  <path
     style="fill:#fd8080;fill-opacity:1;stroke-width:0.015625"
     d="M 5.9752428,13.572626 C 5.825332,13.523052 5.6460658,13.38721 5.4790128,13.196601 4.9595621,12.603902 4.7383842,12.122706 4.5220532,11.114631 4.398494,10.538861 4.3604405,10.389768 4.0920785,9.429995 3.8150524,8.4392364 3.7160202,7.6471402 3.7726775,6.875308 3.8288625,6.1099036 3.9164565,5.844507 4.2308909,5.4869814 4.3533561,5.3477332 4.5254668,5.2179453 4.777465,5.0748125 5.38216,4.731351 5.8813362,4.5862455 6.4581809,4.5862455 c 0.231672,0 0.2836625,0.018714 0.4030472,0.1450784 0.1441095,0.1525344 0.1944306,0.2749974 0.2800073,0.6814355 0.036357,0.1726711 0.042378,0.2436393 0.048891,0.5762416 0.00833,0.4254889 -0.010196,0.7501784 -0.066116,1.1586762 -0.044668,0.3262878 -0.052009,0.4580547 -0.06274,1.1260683 -0.010129,0.6305528 0.012227,1.4086795 0.046016,1.6015625 0.032474,0.185381 0.0839,0.338966 0.2124984,0.634623 0.1235691,0.284096 0.1454697,0.352323 0.1871264,0.582953 0.037078,0.205281 0.038925,0.361544 0.0068,0.575496 -0.066421,0.442379 -0.1842582,0.717659 -0.5233293,1.222544 -0.2556581,0.380682 -0.4087131,0.548019 -0.5739267,0.627484 -0.104405,0.05022 -0.1346894,0.05743 -0.2601551,0.06198 -0.078098,0.0028 -0.1595736,-6.61e-4 -0.181058,-0.0078 z"
     id="path902" />
</svg>
