<svg height="16" viewBox="0 0 16 16" width="16" xmlns="http://www.w3.org/2000/svg"><g stroke="#ff8080"><path d="m1.4374349 6.2407149c3.327012.02139 9.5648681-.0018 11.4589221-.028063" fill="#ff8080" stroke-width="3"/><g fill="none" stroke-width="2.29484"><path d="m9.324041 2.3242926 4.933526 4.498955"/><path d="m13.437147 5.859164c-1.047728 1.5267675-2.528193 2.753523-3.7347036 4.077989"/></g></g><g transform="translate(.000168)"><g fill="#fc7f7f"><path d="m12 11.999519c.55228 0 1 .448243 1 1.000481v1.000483.211639.786437 1.000479.0014h-1v-1c-.202186 0-.336627-.491203-.5-.5-1.452695-.07822-1.5-.503591-1.5-1h1 1v-.500438h-1-1c0-.552238.44772-1.000481 1-1.000481z" stroke-width=".999963"/><path d="m1.999832 12v1c0 .55228.44772 1 1 1-.55228 0-1 .44772-1 1v1h1v-1h1v1h1v-1c0-.55228-.44772-1-1-1 .55228 0 1-.44772 1-1v-1h-1v1h-1v-1z"/><path d="m5.999832 12v1 3h1v-1h1v1h1v-1c-.000834-.17579-.047991-.34825-.13672-.5.088728-.15175.13588-.32421.13672-.5v-1c0-.55228-.44772-1-1-1h-1zm1 1h1v1h-1z"/></g><g fill="#ff8080" stroke="#ff8080" stroke-width=".500002"><path d="m11.721643 12.70092h2"/><path d="m11.694618 13.781362h2"/></g></g></svg>