<svg height="16" viewBox="0 0 16 16" width="16" xmlns="http://www.w3.org/2000/svg"><g fill="#fc7f7f"><path d="m12 11.999519c.55228 0 1 .448243 1 1.000481v1.000483.211639.786437 1.000479.0014h-1v-1c-.202186 0-.336627-.491203-.5-.5-1.452695-.07822-1.5-.503591-1.5-1h1 1v-.500438h-1-1c0-.552238.44772-1.000481 1-1.000481z" stroke-width=".999963"/><path d="m1.999832 12v1c0 .55228.44772 1 1 1-.55228 0-1 .44772-1 1v1h1v-1h1v1h1v-1c0-.55228-.44772-1-1-1 .55228 0 1-.44772 1-1v-1h-1v1h-1v-1z"/><path d="m5.999832 12v1 3h1v-1h1v1h1v-1c-.000834-.17579-.047991-.34825-.13672-.5.088728-.15175.13588-.32421.13672-.5v-1c0-.55228-.44772-1-1-1h-1zm1 1h1v1h-1z"/></g><g stroke="#ff8080"><path d="m11.721643 12.70092h2" fill="#ff8080" stroke-width=".500002"/><path d="m11.694618 13.781362h2" fill="#ff8080" stroke-width=".500002"/><path d="m.98844737 8.4010995c1.83521943-3.2693204 4.32032623 3.4590935 5.09543103-.1041898.5122353-2.3548301 1.5512016-4.7636852 1.5512016-7.1393289 0-.44964593.3393333.8692356.4187169 1.3152833.3581573 2.0123893.7090004 4.0047814 1.1634017 6.0086392 1.3138514 5.7939487.1057884.3417346 2.0036324-1.0154361.144766-.1035335.95577 1.0405657 1.098766 1.1092871.938333.4509487 2.146617-.5105464 3.19809-.8075801" fill="none" stroke="#ff8080" stroke-width="1.52176"/></g></svg>