<svg height="16" viewBox="0 0 16 16" width="16" xmlns="http://www.w3.org/2000/svg"><g fill="#fc7f7f"><path d="m5.640625.250438c-.75 0-.75 1-.75 1l.0028 1.7433557s-.0028.7623199.7656177.7594124l.7315823-.0027681v.75c-.9987826-.28732-2.3899024-.5553882-3.4887954-1.2601516-.4265336-.1870545-.9793234 1.1200236-.9793234 1.1200236 1.4123763 1.0085676 3.5979104.8866743 3.9681188 1.390128v1.75c-.5 1-1.5 2.75-2 3.5h2.25l1.5-2.75 1.25 2.75c.5 0 1.25 0 2 .000003-.5-1.000003-1.25-2.500006-1.75-3.500003v-1.75c.450387-.5452358 2.25264-.15852 3.39846-.4920078.282315-.5425377.182574-.6845166-.297031-1.5473061-1.253436.698062-1.535576.3459793-3.851429.7893139v-.75h.75c.25 0 .7631105-.245671.760209-.7445791l-.010209-1.7554209c0-.5-.25-1-1.25-1l-2.5.75h2.5v1.25c-.9605198.00114-1.745755-.00241-2.5 0v-1.25l2.5-.75z" fill-opacity=".99608" stroke-width=".762656" transform="translate(.609375 -.000438)"/><g fill="none" stroke="#ff8080" stroke-width="1.5"><path d="m3.7388367 3.4147117c-.9448159 1.3559779-.9992656 2.3269247-.4091983 3.6683904"/><path d="m12.545272 4.8349236c.597942-1.5043684.197251-2.2941014-.8486-3.1240651"/></g></g><g transform="translate(.5 -.000438)"><g fill="#fc7f7f"><path d="m12 11.999519c.55228 0 1 .448243 1 1.000481v1.000483.211639.786437 1.000479.0014h-1v-1c-.202186 0-.336627-.491203-.5-.5-1.452695-.07822-1.5-.503591-1.5-1h1 1v-.500438h-1-1c0-.552238.44772-1.000481 1-1.000481z" stroke-width=".999963"/><path d="m1.999832 12v1c0 .55228.44772 1 1 1-.55228 0-1 .44772-1 1v1h1v-1h1v1h1v-1c0-.55228-.44772-1-1-1 .55228 0 1-.44772 1-1v-1h-1v1h-1v-1z"/><path d="m5.999832 12v1 3h1v-1h1v1h1v-1c-.000834-.17579-.047991-.34825-.13672-.5.088728-.15175.13588-.32421.13672-.5v-1c0-.55228-.44772-1-1-1h-1zm1 1h1v1h-1z"/></g><g fill="#ff8080" stroke="#ff8080" stroke-width=".500002"><path d="m11.721643 12.70092h2"/><path d="m11.694618 13.781362h2"/></g></g></svg>