<svg height="16" viewBox="0 0 16 16" width="16" xmlns="http://www.w3.org/2000/svg"><path d="m9.5532719 19.032065c.7515921 0 .8020221-.134249 1.3566411-1.096988 1.187157-1.391415 1.959866-2.115403 1.959866-2.115403.956259-1.186302.899466-1.493116.400204-2.10267-1.836473-.08397-.950366 1.07716-2.399132 1.067713-3.6654836.57138-5.8363537 3.182233-5.8211772 3.07349.2193447-1.571653 5.7194162-3.595593 5.7442212-3.670251.388057-1.167938 1.199163-2.981165 1.47376-3.928695.58339-1.7248573-.838773-1.8000802-1.724674-.5736257l-1.918979 4.8317897c-.0690625-.138458.3155477-4.449876.3998932-5.2980728.1599514-1.608499-2.0933718-1.6944154-2.1769669-.2258024-.0537649.944555-.1115382 6.0881672-.147506 4.8181392-.0302181-1.067011-1.3692069-2.513104-1.5668065-4.2277384-.1944963-1.7989751-2.5014442-1.2032339-1.7843238.6443794.4060542 2.461134.8612438 1.917287 1.3050931 3.81199l-1.5451335-2.033556c-.8083872-1.309984-2.2747721-.419846-1.466385.890138l1.7162803 2.711944c.1090999.892326.3001203 1.520805 1.3544509 2.699388.5134486.832581.8190766.71043 1.5706688.71043z" fill="#fc7f7f" fill-opacity=".99608" stroke-width="1.21993" transform="translate(.267457 -7.900915)"/><g fill="#fc7f7f"><path d="m12 11.999519c.55228 0 1 .448243 1 1.000481v1.000483.211639.786437 1.000479.0014h-1v-1c-.202186 0-.336627-.491203-.5-.5-1.452695-.07822-1.5-.503591-1.5-1h1 1v-.500438h-1-1c0-.552238.44772-1.000481 1-1.000481z" stroke-width=".999963"/><path d="m1.999832 12v1c0 .55228.44772 1 1 1-.55228 0-1 .44772-1 1v1h1v-1h1v1h1v-1c0-.55228-.44772-1-1-1 .55228 0 1-.44772 1-1v-1h-1v1h-1v-1z"/><path d="m5.999832 12v1 3h1v-1h1v1h1v-1c-.000834-.17579-.047991-.34825-.13672-.5.088728-.15175.13588-.32421.13672-.5v-1c0-.55228-.44772-1-1-1h-1zm1 1h1v1h-1z"/></g><g fill="#ff8080" stroke="#ff8080" stroke-width=".500002"><path d="m11.721643 12.70092h2"/><path d="m11.694618 13.781362h2"/></g></svg>