<svg height="16" viewBox="0 0 16 16" width="16" xmlns="http://www.w3.org/2000/svg"><g fill="#fc7f7f"><path d="m12 11.999519c.55228 0 1 .448243 1 1.000481v1.000483.211639.786437 1.000479.0014h-1v-1c-.202186 0-.336627-.491203-.5-.5-1.452695-.07822-1.5-.503591-1.5-1h1 1v-.500438h-1-1c0-.552238.44772-1.000481 1-1.000481z" stroke-width=".999963"/><path d="m1.999832 12v1c0 .55228.44772 1 1 1-.55228 0-1 .44772-1 1v1h1v-1h1v1h1v-1c0-.55228-.44772-1-1-1 .55228 0 1-.44772 1-1v-1h-1v1h-1v-1z"/><path d="m5.999832 12v1 3h1v-1h1v1h1v-1c-.000834-.17579-.047991-.34825-.13672-.5.088728-.15175.13588-.32421.13672-.5v-1c0-.55228-.44772-1-1-1h-1zm1 1h1v1h-1z"/><path d="m6.1653091.14865371c-.4648371 0-.8390411.37420393-.8390411.83904107v2.51712322c0 .4648372.374204.8390412.8390411.8390412h.8390411v.8308436a.83912498.83912498 0 0 0 -.265481.05244l-1.7207054.5735601-.5735601-1.7207054a.83912498.83912498 0 0 0 -.8308437-.5850382.83912498.83912498 0 0 0 -.7620171 1.1143305l.8390411 2.5171232a.83912498.83912498 0 0 0 1.0618904.5309536l1.4126095-.4703245v.512931c0 .0343.015707.063482.019667.096683l-3.841214 2.5613409a.83912498.83912498 0 1 0 .9308322 1.396248l4.2426953-2.8284916 1.2536116 2.5056286a.83912498.83912498 0 0 0 1.0159949.421157l2.5171231-.839041a.83912498.83912498 0 1 0 -.530953-1.5912421l-1.8271803.6079771-.8177378-1.6371365c.2314915-.1490472.3933005-.3962539.3933005-.6931905v-.8390411h1.1602256l.606342 1.2143441a.83915253.83915253 0 1 0 1.501128-.7505474l-.839041-1.6780821a.83912498.83912498 0 0 0 -.750547-.4637631h-2.5171238v-.8390411h.8390414c.4648371 0 .8390414-.374204.8390414-.8390412v-2.51712322c0-.46483715-.3742043-.83904108-.8390414-.83904108zm0 1.67808219h.8390411v1.6780821h-.8390411z" fill-opacity=".99608" stroke-width=".839041"/></g></svg>